<svg width="130" height="10" viewBox="0 0 130 10" fill="none" xmlns="http://www.w3.org/2000/svg">
<mask id="path-1-inside-1_77_9" fill="white">
<path d="M0 10C0 4.47715 4.47715 0 10 0H127C128.657 0 130 1.34315 130 3V10H0V10Z"/>
</mask>
<path d="M-2 10C-2 3.37258 3.37258 -2 10 -2H127C129.761 -2 132 0.238576 132 3H128C128 2.44772 127.552 2 127 2H10C5.58172 2 2 5.58172 2 10H-2ZM132 15H-2L0 10C2.09287e-08 8.24496 0.461891 6.52083 1.33927 5.00083L10 5H128L132 15ZM-2 15V10C-2 3.37258 3.37258 -2 10 -2V2C5.58172 2 2 5.58172 2 10V5L-2 15ZM127 -2C129.761 -2 132 0.238576 132 3V15L128 5V3C128 2.44772 127.552 2 127 2V-2Z" fill="#2667FF" mask="url(#path-1-inside-1_77_9)"/>
</svg>
