<svg xmlns="http://www.w3.org/2000/svg" width="793" height="592" fill="none"><g filter="url(#a)"><g clip-path="url(#b)"><rect width="793" height="592" fill="#A1AEE5" fill-opacity=".03" rx="20"/><rect width="793" height="592" fill="url(#c)" fill-opacity=".15" rx="20"/><path fill="#A1AEE5" d="M61.935 112.149v-7.878h1.272v7.878h-1.272zm.636-9.15a.81.81 0 0 1-.804-.804c0-.446.366-.804.804-.804.446 0 .804.358.804.804a.806.806 0 0 1-.804.804zm3.032 9.15v-7.878h1.2v1.279h.028c.373-.841 1.213-1.352 2.237-1.352 1.067 0 1.863.54 2.207 1.491h.029c.446-.936 1.374-1.491 2.477-1.491 1.557 0 2.566 1.008 2.566 2.572v5.379h-1.272v-5.087c0-1.088-.607-1.732-1.66-1.732-1.052 0-1.804.782-1.804 1.864v4.955h-1.272v-5.24c0-.95-.65-1.579-1.637-1.579-1.052 0-1.827.826-1.827 1.93v4.889h-1.272zm16.823-7.951c2.01 0 3.377 1.607 3.377 4.012 0 2.404-1.36 4.012-3.347 4.012-1.119 0-2.018-.49-2.514-1.352h-.03v3.91h-1.271v-10.509h1.206v1.279h.029c.46-.819 1.461-1.352 2.55-1.352zm-.234 6.891c1.389 0 2.31-1.133 2.31-2.879 0-1.739-.921-2.88-2.31-2.88-1.359 0-2.287 1.17-2.287 2.88 0 1.717.928 2.879 2.287 2.879zm8.799 1.133c-2.215 0-3.632-1.571-3.632-4.012 0-2.448 1.417-4.012 3.632-4.012 2.214 0 3.632 1.564 3.632 4.012 0 2.441-1.418 4.012-3.632 4.012zm0-1.133c1.469 0 2.338-1.074 2.338-2.879 0-1.813-.87-2.88-2.338-2.88-1.47 0-2.339 1.075-2.339 2.88s.877 2.879 2.339 2.879zm5.568 1.06v-7.878h1.198v1.279h.03c.234-.826.986-1.352 1.907-1.352.154 0 .38.022.49.051v1.257c-.103-.044-.439-.088-.658-.088-1.023 0-1.695.746-1.695 1.856v4.875h-1.272zm5.766-9.654h1.271v1.776h1.535v1.052h-1.535v4.728c0 .724.307 1.053.979 1.053.154 0 .461-.022.549-.037v1.075a4.672 4.672 0 0 1-.819.065c-1.425 0-1.98-.592-1.98-2.104v-4.78h-1.097v-1.052h1.097v-1.776zm-40.39 35.654v-7.878h1.272v7.878h-1.272zm.636-9.15a.81.81 0 0 1-.804-.804c0-.446.366-.804.804-.804.446 0 .804.358.804.804a.806.806 0 0 1-.804.804zm3.032 9.15v-7.878h1.2v1.279h.028c.373-.841 1.213-1.352 2.237-1.352 1.067 0 1.863.54 2.207 1.491h.029c.446-.936 1.374-1.491 2.477-1.491 1.557 0 2.566 1.008 2.566 2.572v5.379h-1.272v-5.087c0-1.088-.607-1.732-1.66-1.732-1.052 0-1.804.782-1.804 1.864v4.955h-1.272v-5.24c0-.95-.65-1.579-1.637-1.579-1.052 0-1.827.826-1.827 1.93v4.889h-1.272zm16.823-7.951c2.01 0 3.377 1.607 3.377 4.012 0 2.404-1.36 4.012-3.347 4.012-1.119 0-2.018-.49-2.514-1.352h-.03v3.91h-1.271v-10.509h1.206v1.279h.029c.46-.819 1.461-1.352 2.55-1.352zm-.234 6.891c1.389 0 2.31-1.133 2.31-2.879 0-1.739-.921-2.88-2.31-2.88-1.359 0-2.287 1.17-2.287 2.88 0 1.717.928 2.879 2.287 2.879zm8.799 1.133c-2.215 0-3.632-1.571-3.632-4.012 0-2.448 1.417-4.012 3.632-4.012 2.214 0 3.632 1.564 3.632 4.012 0 2.441-1.418 4.012-3.632 4.012zm0-1.133c1.469 0 2.338-1.074 2.338-2.879 0-1.813-.87-2.88-2.338-2.88-1.47 0-2.339 1.075-2.339 2.88s.877 2.879 2.339 2.879zm5.568 1.06v-7.878h1.198v1.279h.03c.234-.826.986-1.352 1.907-1.352.154 0 .38.022.49.051v1.257c-.103-.044-.439-.088-.658-.088-1.023 0-1.695.746-1.695 1.856v4.875h-1.272zm5.766-9.654h1.271v1.776h1.535v1.052h-1.535v4.728c0 .724.307 1.053.979 1.053.154 0 .461-.022.549-.037v1.075a4.672 4.672 0 0 1-.819.065c-1.425 0-1.98-.592-1.98-2.104v-4.78h-1.097v-1.052h1.097v-1.776zm-40.39 34.654v-7.878h1.272v7.878h-1.272zm.636-9.15a.81.81 0 0 1-.804-.804c0-.446.366-.804.804-.804.446 0 .804.358.804.804a.806.806 0 0 1-.804.804zm3.032 9.15v-7.878h1.2v1.279h.028c.373-.841 1.213-1.352 2.237-1.352 1.067 0 1.863.54 2.207 1.491h.029c.446-.936 1.374-1.491 2.477-1.491 1.557 0 2.566 1.008 2.566 2.572v5.379h-1.272v-5.087c0-1.088-.607-1.732-1.66-1.732-1.052 0-1.804.782-1.804 1.864v4.955h-1.272v-5.24c0-.95-.65-1.579-1.637-1.579-1.052 0-1.827.826-1.827 1.93v4.889h-1.272zm16.823-7.951c2.01 0 3.377 1.607 3.377 4.012 0 2.404-1.36 4.012-3.347 4.012-1.119 0-2.018-.49-2.514-1.352h-.03v3.91h-1.271v-10.509h1.206v1.279h.029c.46-.819 1.461-1.352 2.55-1.352zm-.234 6.891c1.389 0 2.31-1.133 2.31-2.879 0-1.739-.921-2.88-2.31-2.88-1.359 0-2.287 1.17-2.287 2.88 0 1.717.928 2.879 2.287 2.879zm8.799 1.133c-2.215 0-3.632-1.571-3.632-4.012 0-2.448 1.417-4.012 3.632-4.012 2.214 0 3.632 1.564 3.632 4.012 0 2.441-1.418 4.012-3.632 4.012zm0-1.133c1.469 0 2.338-1.074 2.338-2.879 0-1.813-.87-2.88-2.338-2.88-1.47 0-2.339 1.075-2.339 2.88s.877 2.879 2.339 2.879zm5.568 1.06v-7.878h1.198v1.279h.03c.234-.826.986-1.352 1.907-1.352.154 0 .38.022.49.051v1.257c-.103-.044-.439-.088-.658-.088-1.023 0-1.695.746-1.695 1.856v4.875h-1.272zm5.766-9.654h1.271v1.776h1.535v1.052h-1.535v4.728c0 .724.307 1.053.979 1.053.154 0 .461-.022.549-.037v1.075a4.672 4.672 0 0 1-.819.065c-1.425 0-1.98-.592-1.98-2.104v-4.78h-1.097v-1.052h1.097v-1.776zm-40.39 61.654v-7.878h1.272v7.878h-1.272zm.636-9.15a.81.81 0 0 1-.804-.804c0-.446.366-.804.804-.804.446 0 .804.358.804.804a.806.806 0 0 1-.804.804zm3.032 9.15v-7.878h1.2v1.279h.028c.373-.841 1.213-1.352 2.237-1.352 1.067 0 1.863.54 2.207 1.491h.029c.446-.936 1.374-1.491 2.477-1.491 1.557 0 2.566 1.008 2.566 2.572v5.379h-1.272v-5.087c0-1.088-.607-1.732-1.66-1.732-1.052 0-1.804.782-1.804 1.864v4.955h-1.272v-5.24c0-.95-.65-1.579-1.637-1.579-1.052 0-1.827.826-1.827 1.93v4.889h-1.272zm16.823-7.951c2.01 0 3.377 1.607 3.377 4.012 0 2.404-1.36 4.012-3.347 4.012-1.119 0-2.018-.49-2.514-1.352h-.03v3.91h-1.271v-10.509h1.206v1.279h.029c.46-.819 1.461-1.352 2.55-1.352zm-.234 6.891c1.389 0 2.31-1.133 2.31-2.879 0-1.739-.921-2.88-2.31-2.88-1.359 0-2.287 1.17-2.287 2.88 0 1.717.928 2.879 2.287 2.879zm8.799 1.133c-2.215 0-3.632-1.571-3.632-4.012 0-2.448 1.417-4.012 3.632-4.012 2.214 0 3.632 1.564 3.632 4.012 0 2.441-1.418 4.012-3.632 4.012zm0-1.133c1.469 0 2.338-1.074 2.338-2.879 0-1.813-.87-2.88-2.338-2.88-1.47 0-2.339 1.075-2.339 2.88s.877 2.879 2.339 2.879zm5.568 1.06v-7.878h1.198v1.279h.03c.234-.826.986-1.352 1.907-1.352.154 0 .38.022.49.051v1.257c-.103-.044-.439-.088-.658-.088-1.023 0-1.695.746-1.695 1.856v4.875h-1.272zm5.766-9.654h1.271v1.776h1.535v1.052h-1.535v4.728c0 .724.307 1.053.979 1.053.154 0 .461-.022.549-.037v1.075a4.672 4.672 0 0 1-.819.065c-1.425 0-1.98-.592-1.98-2.104v-4.78h-1.097v-1.052h1.097v-1.776zm10.339 1.776v8.47c0 1.6-.745 2.317-2.419 2.317h-.226v-1.075h.197c.862 0 1.177-.329 1.177-1.22v-8.492h1.271zm-.635-1.272a.81.81 0 0 1-.804-.804c0-.446.365-.804.804-.804.445 0 .803.358.803.804a.806.806 0 0 1-.803.804zm5.604 8.119c1.286 0 2.229-.833 2.229-1.965v-.636l-2.061.131c-1.184.073-1.797.505-1.797 1.265 0 .73.635 1.205 1.629 1.205zm-.27 1.104c-1.601 0-2.66-.921-2.66-2.317 0-1.352 1.037-2.148 2.952-2.265l2.207-.132v-.657c0-.98-.643-1.521-1.805-1.521-.913 0-1.593.468-1.747 1.214h-1.22c.037-1.33 1.33-2.346 2.982-2.346 1.863 0 3.062.994 3.062 2.543v5.408h-1.206v-1.367h-.029c-.446.877-1.433 1.44-2.536 1.44zm12.482-7.951-2.909 7.878h-1.286l-2.909-7.878h1.33l2.207 6.504h.029l2.215-6.504h1.323zm4.07 6.847c1.286 0 2.229-.833 2.229-1.965v-.636l-2.061.131c-1.184.073-1.798.505-1.798 1.265 0 .73.636 1.205 1.63 1.205zm-.271 1.104c-1.6 0-2.66-.921-2.66-2.317 0-1.352 1.038-2.148 2.953-2.265l2.207-.132v-.657c0-.98-.644-1.521-1.806-1.521-.913 0-1.593.468-1.746 1.214h-1.221c.037-1.33 1.33-2.346 2.982-2.346 1.864 0 3.062.994 3.062 2.543v5.408h-1.206v-1.367h-.029c-.446.877-1.432 1.44-2.536 1.44zm7.096 0a.823.823 0 0 1-.833-.833c0-.475.365-.833.833-.833.475 0 .833.358.833.833a.819.819 0 0 1-.833.833zm9.931-7.951v7.878h-1.199v-1.301h-.029c-.489.906-1.374 1.374-2.58 1.374-1.724 0-2.799-1.111-2.799-2.901v-5.05h1.272v4.83c0 1.294.68 1.988 1.915 1.988 1.293 0 2.148-.891 2.148-2.243v-4.575h1.272zm2.747-1.776h1.272v1.776h1.535v1.052h-1.535v4.728c0 .724.307 1.053.979 1.053.154 0 .461-.022.548-.037v1.075a4.659 4.659 0 0 1-.818.065c-1.425 0-1.981-.592-1.981-2.104v-4.78h-1.096v-1.052h1.096v-1.776zm4.889 9.654v-7.878h1.271v7.878h-1.271zm.636-9.15a.81.81 0 0 1-.804-.804c0-.446.365-.804.804-.804.445 0 .803.358.803.804a.806.806 0 0 1-.803.804zm3.105 9.15v-11.006h1.272v11.006h-1.272zm4.706.073a.823.823 0 0 1-.833-.833c0-.475.365-.833.833-.833.475 0 .833.358.833.833a.819.819 0 0 1-.833.833zm4.837-9.449v4.041h2.595c1.352 0 2.119-.731 2.119-2.024 0-1.265-.819-2.017-2.178-2.017h-2.536zm0 5.203v4.173h-1.315v-10.546h4.026c2.032 0 3.362 1.243 3.362 3.143 0 1.469-.796 2.609-2.119 3.025l2.441 4.378h-1.542l-2.258-4.173h-2.595zm10.743 3.142c1.286 0 2.229-.833 2.229-1.965v-.636l-2.061.131c-1.184.073-1.798.505-1.798 1.265 0 .73.636 1.205 1.63 1.205zm-.271 1.104c-1.6 0-2.66-.921-2.66-2.317 0-1.352 1.038-2.148 2.952-2.265l2.208-.132v-.657c0-.98-.644-1.521-1.806-1.521-.913 0-1.593.468-1.746 1.214h-1.221c.037-1.33 1.33-2.346 2.982-2.346 1.864 0 3.062.994 3.062 2.543v5.408h-1.206v-1.367h-.029c-.446.877-1.432 1.44-2.536 1.44zm6.058-.073v-7.878h1.199v1.279h.029c.497-.892 1.352-1.352 2.572-1.352 1.732 0 2.807 1.111 2.807 2.901v5.05h-1.272v-4.831c0-1.286-.672-1.988-1.915-1.988-1.293 0-2.148.892-2.148 2.244v4.575h-1.272zm11.89.073c-1.981 0-3.377-1.608-3.377-4.012 0-2.405 1.389-4.012 3.347-4.012 1.126 0 2.032.489 2.514 1.352h.03v-4.407h1.271v11.006h-1.213v-1.33h-.022c-.511.906-1.41 1.403-2.55 1.403zm.226-6.892c-1.381 0-2.302 1.141-2.302 2.88 0 1.746.921 2.879 2.302 2.879 1.367 0 2.295-1.162 2.295-2.879 0-1.71-.928-2.88-2.295-2.88zm9.208 6.892c-2.214 0-3.632-1.571-3.632-4.012 0-2.448 1.418-4.012 3.632-4.012 2.214 0 3.632 1.564 3.632 4.012 0 2.441-1.418 4.012-3.632 4.012zm0-1.133c1.469 0 2.339-1.074 2.339-2.879 0-1.813-.87-2.88-2.339-2.88-1.469 0-2.339 1.075-2.339 2.88s.877 2.879 2.339 2.879zm5.568 1.06v-7.878h1.199v1.279h.029c.373-.841 1.213-1.352 2.236-1.352 1.067 0 1.864.54 2.207 1.491h.029c.446-.936 1.374-1.491 2.478-1.491 1.557 0 2.565 1.008 2.565 2.572v5.379h-1.272v-5.087c0-1.088-.606-1.732-1.659-1.732-1.052 0-1.805.782-1.805 1.864v4.955h-1.271v-5.24c0-.95-.651-1.579-1.637-1.579-1.053 0-1.827.826-1.827 1.93v4.889h-1.272zm14.075-5.306a.823.823 0 0 1-.833-.833c0-.475.365-.833.833-.833.475 0 .833.358.833.833a.819.819 0 0 1-.833.833zm-.46 7.184h-.987l.716-3.354h1.367l-1.096 3.354zm-123.559 70.73c.87.08 1.309.657 1.309 1.724v2.441c0 1.155.504 1.637 1.71 1.637h.329v1.031h-.439c-1.893 0-2.799-.833-2.799-2.58v-2.112c0-1.155-.322-1.542-1.301-1.542v-1.396c.972 0 1.301-.387 1.301-1.556v-1.864c0-1.703.899-2.514 2.799-2.514h.439v1.03h-.329c-1.221 0-1.71.475-1.71 1.645v2.163c0 1.052-.432 1.622-1.309 1.71v.183zm12.518-3.559c2.01 0 3.376 1.607 3.376 4.012 0 2.404-1.359 4.012-3.347 4.012-1.118 0-2.017-.49-2.514-1.352h-.029v3.91h-1.272v-10.509h1.206v1.279h.03c.46-.819 1.461-1.352 2.55-1.352zm-.234 6.891c1.389 0 2.31-1.133 2.31-2.879 0-1.739-.921-2.88-2.31-2.88-1.359 0-2.287 1.17-2.287 2.88 0 1.717.928 2.879 2.287 2.879zm12.124-6.818v7.878h-1.199v-1.301h-.029c-.49.906-1.374 1.374-2.58 1.374-1.724 0-2.799-1.111-2.799-2.901v-5.05h1.272v4.83c0 1.294.68 1.988 1.915 1.988 1.293 0 2.148-.891 2.148-2.243v-4.575h1.272zm6.204 7.951c-1.148 0-2.054-.497-2.565-1.403h-.03v1.33h-1.205v-11.006h1.271v4.407h.029c.497-.863 1.411-1.352 2.529-1.352 1.981 0 3.333 1.607 3.333 4.012 0 2.412-1.352 4.012-3.362 4.012zm-.227-6.892c-1.374 0-2.309 1.177-2.309 2.88 0 1.71.935 2.879 2.309 2.879 1.382 0 2.288-1.125 2.288-2.879 0-1.747-.906-2.88-2.288-2.88zm5.605 6.819v-11.006h1.272v11.006h-1.272zm3.741 0v-7.878h1.272v7.878H144.8zm.636-9.15a.811.811 0 0 1-.804-.804c0-.446.366-.804.804-.804.446 0 .804.358.804.804a.806.806 0 0 1-.804.804zm9.544 3.837h-1.25c-.161-.841-.862-1.506-2.046-1.506-1.374 0-2.31 1.141-2.31 2.88 0 1.79.951 2.879 2.324 2.879 1.097 0 1.827-.511 2.047-1.461h1.249c-.212 1.534-1.505 2.594-3.303 2.594-2.163 0-3.61-1.535-3.61-4.012 0-2.419 1.44-4.012 3.596-4.012 1.951 0 3.142 1.257 3.303 2.638zm5.882-.365c0-1.331 1.206-2.266 2.916-2.266 1.6 0 2.813.957 2.864 2.251h-1.22c-.08-.738-.724-1.199-1.688-1.199-.972 0-1.623.461-1.623 1.148 0 .533.424.891 1.33 1.118l1.199.3c1.593.401 2.163.957 2.163 2.104 0 1.345-1.293 2.295-3.113 2.295-1.696 0-2.923-.921-3.048-2.287h1.279c.132.803.782 1.235 1.857 1.235 1.074 0 1.746-.446 1.746-1.155 0-.555-.329-.848-1.227-1.082l-1.382-.358c-1.381-.358-2.053-1.052-2.053-2.104zm8.338-3.976h1.271v1.776h1.535v1.052h-1.535v4.728c0 .724.307 1.053.98 1.053.153 0 .46-.022.548-.037v1.075a4.672 4.672 0 0 1-.819.065c-1.425 0-1.98-.592-1.98-2.104v-4.78h-1.097v-1.052h1.097v-1.776zm7.315 8.623c1.286 0 2.228-.833 2.228-1.965v-.636l-2.06.131c-1.184.073-1.798.505-1.798 1.265 0 .73.636 1.205 1.63 1.205zm-.271 1.104c-1.6 0-2.66-.921-2.66-2.317 0-1.352 1.038-2.148 2.952-2.265l2.207-.132v-.657c0-.98-.643-1.521-1.805-1.521-.913 0-1.593.468-1.746 1.214h-1.221c.037-1.33 1.33-2.346 2.982-2.346 1.864 0 3.062.994 3.062 2.543v5.408h-1.206v-1.367h-.029c-.446.877-1.432 1.44-2.536 1.44zm6.475-9.727h1.271v1.776h1.535v1.052h-1.535v4.728c0 .724.307 1.053.979 1.053.154 0 .461-.022.549-.037v1.075a4.672 4.672 0 0 1-.819.065c-1.425 0-1.98-.592-1.98-2.104v-4.78h-1.097v-1.052h1.097v-1.776zm4.888 9.654v-7.878h1.272v7.878h-1.272zm.636-9.15a.81.81 0 0 1-.804-.804c0-.446.365-.804.804-.804.446 0 .804.358.804.804a.806.806 0 0 1-.804.804zm9.544 3.837h-1.25c-.161-.841-.862-1.506-2.046-1.506-1.374 0-2.31 1.141-2.31 2.88 0 1.79.95 2.879 2.324 2.879 1.097 0 1.827-.511 2.047-1.461h1.249c-.212 1.534-1.505 2.594-3.303 2.594-2.163 0-3.61-1.535-3.61-4.012 0-2.419 1.44-4.012 3.595-4.012 1.952 0 3.143 1.257 3.304 2.638zm12.437-2.565-2.909 7.878h-1.286l-2.909-7.878h1.331l2.207 6.504h.029l2.214-6.504h1.323zm4.669 7.951c-2.214 0-3.632-1.571-3.632-4.012 0-2.448 1.418-4.012 3.632-4.012 2.215 0 3.632 1.564 3.632 4.012 0 2.441-1.417 4.012-3.632 4.012zm0-1.133c1.469 0 2.339-1.074 2.339-2.879 0-1.813-.87-2.88-2.339-2.88-1.469 0-2.338 1.075-2.338 2.88s.877 2.879 2.338 2.879zm5.642 1.06v-7.878h1.271v7.878h-1.271zm.635-9.15a.811.811 0 0 1-.804-.804c0-.446.366-.804.804-.804.446 0 .804.358.804.804a.806.806 0 0 1-.804.804zm6.022 9.223c-1.981 0-3.377-1.608-3.377-4.012 0-2.405 1.389-4.012 3.347-4.012 1.126 0 2.032.489 2.514 1.352h.03v-4.407h1.271v11.006h-1.213v-1.33h-.022c-.511.906-1.41 1.403-2.55 1.403zm.226-6.892c-1.381 0-2.302 1.141-2.302 2.88 0 1.746.921 2.879 2.302 2.879 1.367 0 2.295-1.162 2.295-2.879 0-1.71-.928-2.88-2.295-2.88zm10.143 6.819v-7.878h1.198v1.279h.029c.373-.841 1.214-1.352 2.237-1.352 1.067 0 1.863.54 2.207 1.491h.029c.446-.936 1.374-1.491 2.477-1.491 1.557 0 2.566 1.008 2.566 2.572v5.379h-1.272v-5.087c0-1.088-.607-1.732-1.659-1.732s-1.805.782-1.805 1.864v4.955h-1.272v-5.24c0-.95-.65-1.579-1.637-1.579-1.052 0-1.827.826-1.827 1.93v4.889h-1.271zm15.609-1.031c1.287 0 2.229-.833 2.229-1.965v-.636l-2.061.131c-1.184.073-1.797.505-1.797 1.265 0 .73.635 1.205 1.629 1.205zm-.27 1.104c-1.601 0-2.66-.921-2.66-2.317 0-1.352 1.037-2.148 2.952-2.265l2.207-.132v-.657c0-.98-.643-1.521-1.805-1.521-.913 0-1.593.468-1.746 1.214h-1.221c.037-1.33 1.33-2.346 2.982-2.346 1.863 0 3.062.994 3.062 2.543v5.408h-1.206v-1.367h-.029c-.446.877-1.433 1.44-2.536 1.44zm6.131-.073v-7.878h1.271v7.878h-1.271zm.636-9.15a.81.81 0 0 1-.804-.804c0-.446.365-.804.804-.804.445 0 .804.358.804.804a.807.807 0 0 1-.804.804zm3.032 9.15v-7.878h1.198v1.279h.03c.497-.892 1.352-1.352 2.572-1.352 1.732 0 2.806 1.111 2.806 2.901v5.05h-1.271v-4.831c0-1.286-.673-1.988-1.915-1.988-1.293 0-2.148.892-2.148 2.244v4.575h-1.272zm12.409 2.024h-1.119c-.818-1.023-1.973-3.025-1.973-6.402 0-3.383 1.111-4.969 2.046-6.16h1.067c-.621.723-1.819 2.799-1.819 6.146s1.125 5.254 1.798 6.416zm88.281 0c.672-1.162 1.798-3.069 1.798-6.416 0-3.347-1.184-5.423-1.813-6.146h1.067c.936 1.191 2.046 2.777 2.046 6.16 0 3.377-1.162 5.379-1.98 6.402h-1.118zm-258.32 18.584c.87.08 1.309.657 1.309 1.724v2.441c0 1.155.504 1.637 1.71 1.637h.329v1.031h-.439c-1.893 0-2.799-.833-2.799-2.58v-2.112c0-1.155-.322-1.542-1.301-1.542v-1.396c.972 0 1.301-.387 1.301-1.556v-1.864c0-1.703.899-2.514 2.799-2.514h.439v1.03h-.329c-1.221 0-1.71.475-1.71 1.645v2.163c0 1.052-.432 1.622-1.309 1.71v.183zm9.149-5.262h1.272v1.776h1.534v1.052h-1.534v4.728c0 .724.307 1.053.979 1.053.153 0 .46-.022.548-.037v1.075a4.659 4.659 0 0 1-.818.065c-1.426 0-1.981-.592-1.981-2.104v-4.78h-1.096v-1.052h1.096v-1.776zm4.816 9.654v-7.878h1.198v1.279h.029c.234-.826.987-1.352 1.908-1.352.153 0 .38.022.489.051v1.257c-.102-.044-.438-.088-.657-.088-1.024 0-1.696.746-1.696 1.856v4.875h-1.271zm6.021 2.857c-.161 0-.402-.022-.556-.051v-1.074c.147.029.351.044.519.044.731 0 1.126-.351 1.447-1.301l.154-.468-2.916-7.885h1.352l2.207 6.584h.029l2.207-6.584h1.338l-3.084 8.36c-.673 1.827-1.301 2.375-2.697 2.375zm-61.782 18.751c.87.08 1.308.657 1.308 1.724v2.441c0 1.155.504 1.637 1.71 1.637h.329v1.031h-.439c-1.892 0-2.799-.833-2.799-2.58v-2.112c0-1.155-.321-1.542-1.3-1.542v-1.396c.972 0 1.3-.387 1.3-1.556v-1.864c0-1.703.9-2.514 2.8-2.514h.438v1.03h-.329c-1.22 0-1.71.475-1.71 1.645v2.163c0 1.052-.431 1.622-1.308 1.71v.183zm129.496 4.392v-7.878h1.198v1.279h.03c.234-.826.986-1.352 1.907-1.352.154 0 .38.022.49.051v1.257c-.103-.044-.439-.088-.658-.088-1.023 0-1.695.746-1.695 1.856v4.875h-1.272zm16.764-2.2h-7.14v-1.125h7.14v1.125zm0-2.799h-7.14v-1.125h7.14v1.125zm6.605 4.999v-7.878h1.199v1.279h.029c.497-.892 1.352-1.352 2.572-1.352 1.732 0 2.807 1.111 2.807 2.901v5.05h-1.272v-4.831c0-1.286-.672-1.988-1.915-1.988-1.293 0-2.148.892-2.148 2.244v4.575h-1.272zm12.043-6.833c-1.235 0-2.126.899-2.214 2.229h4.334c-.03-1.338-.877-2.229-2.12-2.229zm2.09 4.582h1.257c-.219 1.352-1.586 2.324-3.266 2.324-2.215 0-3.611-1.542-3.611-3.983s1.404-4.041 3.552-4.041c2.105 0 3.42 1.483 3.42 3.866v.497h-5.656v.073c0 1.498.921 2.47 2.324 2.47.986 0 1.754-.468 1.98-1.206zm13.257-5.627-2.207 7.878h-1.287l-1.797-6.124h-.03l-1.797 6.124h-1.287l-2.207-7.878h1.257l1.601 6.438h.029l1.805-6.438h1.228l1.805 6.438h.029l1.601-6.438h1.257zm6.02-2.668h3.983c1.981 0 3.377 1.389 3.377 3.384 0 2.002-1.411 3.398-3.391 3.398h-2.653v3.764h-1.316v-10.546zm1.316 1.17v4.443h2.324c1.505 0 2.368-.826 2.368-2.229 0-1.396-.855-2.214-2.368-2.214h-2.324zm7.994 9.376v-7.878h1.199v1.279h.029c.234-.826.987-1.352 1.908-1.352.153 0 .38.022.489.051v1.257c-.102-.044-.438-.088-.658-.088-1.023 0-1.695.746-1.695 1.856v4.875h-1.272zm5.422 0v-7.878h1.272v7.878h-1.272zm.636-9.15a.811.811 0 0 1-.804-.804c0-.446.366-.804.804-.804.446 0 .804.358.804.804a.806.806 0 0 1-.804.804zm3.032 9.15v-7.878h1.199v1.279h.029c.497-.892 1.352-1.352 2.573-1.352 1.732 0 2.806 1.111 2.806 2.901v5.05h-1.272v-4.831c0-1.286-.672-1.988-1.914-1.988-1.294 0-2.149.892-2.149 2.244v4.575h-1.272zm9.318-9.654h1.271v1.776h1.535v1.052h-1.535v4.728c0 .724.307 1.053.98 1.053.153 0 .46-.022.548-.037v1.075a4.672 4.672 0 0 1-.819.065c-1.425 0-1.98-.592-1.98-2.104v-4.78h-1.096v-1.052h1.096v-1.776zm4.472 6.753h1.322c.125 1.14 1.206 1.892 2.712 1.892 1.425 0 2.463-.752 2.463-1.79 0-.892-.622-1.44-2.039-1.805l-1.352-.351c-1.944-.497-2.807-1.352-2.807-2.784 0-1.754 1.535-2.982 3.727-2.982 2.098 0 3.618 1.242 3.676 3.011h-1.315c-.117-1.133-1.03-1.827-2.404-1.827-1.367 0-2.317.709-2.317 1.739 0 .797.585 1.272 2.017 1.644l1.104.293c2.185.548 3.069 1.388 3.069 2.901 0 1.929-1.52 3.135-3.946 3.135-2.237 0-3.786-1.213-3.91-3.076zm10.245-6.753h1.272v1.776h1.534v1.052h-1.534v4.728c0 .724.307 1.053.979 1.053.154 0 .46-.022.548-.037v1.075a4.659 4.659 0 0 1-.818.065c-1.425 0-1.981-.592-1.981-2.104v-4.78h-1.096v-1.052h1.096v-1.776zm4.816 9.654v-7.878h1.198v1.279h.029c.234-.826.987-1.352 1.908-1.352.153 0 .38.022.489.051v1.257c-.102-.044-.438-.088-.657-.088-1.023 0-1.696.746-1.696 1.856v4.875h-1.271zm8.126-6.833c-1.235 0-2.127.899-2.215 2.229h4.334c-.029-1.338-.877-2.229-2.119-2.229zm2.09 4.582h1.257c-.219 1.352-1.586 2.324-3.267 2.324-2.214 0-3.61-1.542-3.61-3.983s1.403-4.041 3.552-4.041c2.104 0 3.42 1.483 3.42 3.866v.497h-5.657v.073c0 1.498.921 2.47 2.324 2.47.987 0 1.754-.468 1.981-1.206zm5.86 1.22c1.287 0 2.229-.833 2.229-1.965v-.636l-2.061.131c-1.184.073-1.797.505-1.797 1.265 0 .73.635 1.205 1.629 1.205zm-.27 1.104c-1.601 0-2.66-.921-2.66-2.317 0-1.352 1.037-2.148 2.952-2.265l2.207-.132v-.657c0-.98-.643-1.521-1.805-1.521-.913 0-1.593.468-1.746 1.214h-1.221c.037-1.33 1.33-2.346 2.982-2.346 1.863 0 3.062.994 3.062 2.543v5.408h-1.206v-1.367h-.029c-.446.877-1.433 1.44-2.536 1.44zm6.058-.073v-7.878h1.198v1.279h.03c.372-.841 1.213-1.352 2.236-1.352 1.067 0 1.863.54 2.207 1.491h.029c.446-.936 1.374-1.491 2.478-1.491 1.556 0 2.565 1.008 2.565 2.572v5.379h-1.272v-5.087c0-1.088-.607-1.732-1.659-1.732s-1.805.782-1.805 1.864v4.955h-1.272v-5.24c0-.95-.65-1.579-1.637-1.579-1.052 0-1.827.826-1.827 1.93v4.889h-1.271zm16.545 2.024h-1.118c-.819-1.023-1.974-3.025-1.974-6.402 0-3.383 1.111-4.969 2.047-6.16h1.067c-.622.723-1.82 2.799-1.82 6.146s1.125 5.254 1.798 6.416zm5.918-2.024v-7.878h1.199v1.279h.029c.497-.892 1.352-1.352 2.572-1.352 1.732 0 2.807 1.111 2.807 2.901v5.05h-1.272v-4.831c0-1.286-.672-1.988-1.915-1.988-1.293 0-2.148.892-2.148 2.244v4.575h-1.272zm12.043-6.833c-1.235 0-2.126.899-2.214 2.229h4.334c-.03-1.338-.877-2.229-2.12-2.229zm2.09 4.582h1.257c-.219 1.352-1.585 2.324-3.266 2.324-2.215 0-3.61-1.542-3.61-3.983s1.403-4.041 3.551-4.041c2.105 0 3.42 1.483 3.42 3.866v.497h-5.656v.073c0 1.498.921 2.47 2.324 2.47.987 0 1.754-.468 1.98-1.206zm13.257-5.627-2.207 7.878h-1.286l-1.798-6.124h-.029l-1.798 6.124h-1.287l-2.207-7.878h1.257l1.601 6.438h.029l1.805-6.438h1.228l1.805 6.438h.029l1.601-6.438h1.257zm7.336 7.878h-1.315v-10.546h6.401v1.184h-5.086v3.625h4.67v1.169h-4.67v4.568zm7.103 0v-7.878h1.272v7.878h-1.272zm.636-9.15a.81.81 0 0 1-.804-.804c0-.446.365-.804.804-.804.446 0 .804.358.804.804a.806.806 0 0 1-.804.804zm3.105 9.15v-11.006h1.272v11.006h-1.272zm6.811-6.833c-1.235 0-2.127.899-2.215 2.229h4.334c-.029-1.338-.877-2.229-2.119-2.229zm2.09 4.582h1.257c-.219 1.352-1.586 2.324-3.267 2.324-2.214 0-3.61-1.542-3.61-3.983s1.403-4.041 3.552-4.041c2.104 0 3.42 1.483 3.42 3.866v.497h-5.657v.073c0 1.498.921 2.47 2.324 2.47.987 0 1.754-.468 1.981-1.206zm6.796 4.275h-1.118c-.819-1.023-1.974-3.025-1.974-6.402 0-3.383 1.111-4.969 2.047-6.16h1.067c-.621.723-1.82 2.799-1.82 6.146s1.125 5.254 1.798 6.416zm3.032-8.85h-1.169v-3.72h1.169v3.72zm2.755 0h-1.169v-3.72h1.169v3.72zm83.473 0h-1.169v-3.72h1.169v3.72zm2.755 0h-1.169v-3.72h1.169v3.72zm1.863 8.85c.673-1.162 1.798-3.069 1.798-6.416 0-3.347-1.184-5.423-1.812-6.146h1.067c.935 1.191 2.046 2.777 2.046 6.16 0 3.377-1.162 5.379-1.98 6.402h-1.119zm5.247 0c.672-1.162 1.798-3.069 1.798-6.416 0-3.347-1.184-5.423-1.813-6.146h1.067c.936 1.191 2.047 2.777 2.047 6.16 0 3.377-1.162 5.379-1.981 6.402h-1.118zm6.876-7.33a.824.824 0 0 1-.833-.833.82.82 0 0 1 .833-.833c.475 0 .834.358.834.833a.82.82 0 0 1-.834.833zm-.46 7.184h-.987l.717-3.354h1.366l-1.096 3.354zM63.339 359.773v4.041h2.594c1.352 0 2.12-.731 2.12-2.024 0-1.265-.82-2.017-2.178-2.017h-2.536zm0 5.203v4.173h-1.316v-10.546h4.027c2.032 0 3.362 1.243 3.362 3.143 0 1.469-.797 2.609-2.12 3.025l2.441 4.378h-1.542l-2.258-4.173h-2.594zm10.742 3.142c1.286 0 2.229-.833 2.229-1.965v-.636l-2.061.131c-1.184.073-1.798.505-1.798 1.265 0 .73.636 1.205 1.63 1.205zm-.27 1.104c-1.6 0-2.66-.921-2.66-2.317 0-1.352 1.037-2.148 2.952-2.265l2.207-.132v-.657c0-.98-.643-1.521-1.805-1.521-.914 0-1.593.468-1.747 1.214h-1.22c.036-1.33 1.33-2.346 2.981-2.346 1.864 0 3.063.994 3.063 2.543v5.408h-1.206v-1.367h-.03c-.445.877-1.432 1.44-2.535 1.44zm6.057-.073v-7.878h1.199v1.279h.03c.496-.892 1.351-1.352 2.572-1.352 1.732 0 2.806 1.111 2.806 2.901v5.05h-1.272v-4.831c0-1.286-.672-1.988-1.914-1.988-1.294 0-2.149.892-2.149 2.244v4.575h-1.272zm11.89.073c-1.98 0-3.376-1.608-3.376-4.012 0-2.405 1.388-4.012 3.347-4.012 1.125 0 2.032.489 2.514 1.352h.03v-4.407h1.27v11.006h-1.212v-1.33h-.022c-.512.906-1.41 1.403-2.55 1.403zm.227-6.892c-1.382 0-2.302 1.141-2.302 2.88 0 1.746.92 2.879 2.302 2.879 1.366 0 2.294-1.162 2.294-2.879 0-1.71-.928-2.88-2.294-2.88zm9.207 6.892c-2.214 0-3.632-1.571-3.632-4.012 0-2.448 1.418-4.012 3.632-4.012 2.215 0 3.632 1.564 3.632 4.012 0 2.441-1.417 4.012-3.632 4.012zm0-1.133c1.469 0 2.339-1.074 2.339-2.879 0-1.813-.87-2.88-2.339-2.88-1.469 0-2.338 1.075-2.338 2.88s.877 2.879 2.338 2.879zm5.569 1.06v-7.878h1.198v1.279h.029c.373-.841 1.213-1.352 2.237-1.352 1.067 0 1.863.54 2.207 1.491h.029c.446-.936 1.374-1.491 2.477-1.491 1.557 0 2.565 1.008 2.565 2.572v5.379h-1.271v-5.087c0-1.088-.607-1.732-1.659-1.732s-1.805.782-1.805 1.864v4.955h-1.272v-5.24c0-.95-.65-1.579-1.637-1.579-1.052 0-1.827.826-1.827 1.93v4.889h-1.271zm17.216 0v-7.878h1.199v1.279h.029c.234-.826.987-1.352 1.907-1.352.154 0 .381.022.49.051v1.257c-.102-.044-.438-.088-.658-.088-1.023 0-1.695.746-1.695 1.856v4.875h-1.272zm16.764-2.2h-7.14v-1.125h7.14v1.125zm0-2.799h-7.14v-1.125h7.14v1.125zm109.321-.307a.824.824 0 0 1-.833-.833.82.82 0 0 1 .833-.833c.475 0 .833.358.833.833a.819.819 0 0 1-.833.833zm-.46 7.184h-.987l.716-3.354h1.367l-1.096 3.354zm-145.526 23.122v-6.826h-1.097v-1.052h1.097v-.731c0-1.454.635-2.105 2.097-2.105.248 0 .468.022.709.066v1.052a3.055 3.055 0 0 0-.592-.058c-.658 0-.936.307-.943 1.045v.731h1.535v1.052h-1.535v6.826h-1.271zm4.859 0v-7.878h1.271v7.878h-1.271zm.636-9.15a.81.81 0 0 1-.804-.804c0-.446.365-.804.804-.804.445 0 .804.358.804.804a.807.807 0 0 1-.804.804zm3.032 9.15v-7.878h1.198v1.279h.03c.497-.892 1.352-1.352 2.572-1.352 1.732 0 2.806 1.111 2.806 2.901v5.05h-1.271v-4.831c0-1.286-.672-1.988-1.915-1.988-1.293 0-2.148.892-2.148 2.244v4.575h-1.272zm11.473-1.031c1.286 0 2.229-.833 2.229-1.965v-.636l-2.061.131c-1.184.073-1.798.505-1.798 1.265 0 .73.636 1.205 1.63 1.205zm-.27 1.104c-1.601 0-2.66-.921-2.66-2.317 0-1.352 1.037-2.148 2.952-2.265l2.207-.132v-.657c0-.98-.643-1.521-1.805-1.521-.914 0-1.593.468-1.747 1.214h-1.22c.036-1.33 1.33-2.346 2.982-2.346 1.863 0 3.062.994 3.062 2.543v5.408h-1.206v-1.367h-.029c-.446.877-1.433 1.44-2.536 1.44zm6.131-.073v-11.006h1.271v11.006h-1.271zm7.92 0v-7.878h1.272v7.878h-1.272zm.636-9.15a.811.811 0 0 1-.804-.804c0-.446.366-.804.804-.804.446 0 .804.358.804.804a.806.806 0 0 1-.804.804zm3.033 9.15v-7.878h1.198v1.279h.029c.497-.892 1.352-1.352 2.573-1.352 1.732 0 2.806 1.111 2.806 2.901v5.05h-1.272v-4.831c0-1.286-.672-1.988-1.914-1.988-1.294 0-2.149.892-2.149 2.244v4.575h-1.271zm9.317-9.654h1.271v1.776h1.535v1.052h-1.535v4.728c0 .724.307 1.053.98 1.053.153 0 .46-.022.548-.037v1.075a4.672 4.672 0 0 1-.819.065c-1.425 0-1.98-.592-1.98-2.104v-4.78h-1.096v-1.052h1.096v-1.776zm15.558 8.47v1.184h-6.402v-10.546h1.315v9.362h5.087zm3.361 1.184h-1.316v-10.546h1.316v10.546zm13.037-10.546v10.546h-1.228v-8.127h-.051l-3.362 8.054h-1.111l-3.361-8.054h-.051v8.127h-1.228v-10.546h1.527l3.64 8.799h.058l3.64-8.799h1.527zm3.96 10.546h-1.315v-10.546h1.315v10.546zm6.701 0h-1.315v-9.362h-3.398v-1.184h8.112v1.184h-3.399v9.362zm16.64-2.2h-7.14v-1.125h7.14v1.125zm0-2.799h-7.14v-1.125h7.14v1.125zm9.287 4.999v-9.15h-.029l-2.792 2.01v-1.389l2.807-2.017h1.286v10.546h-1.272zm8.236.175c-2.463 0-3.888-2.119-3.888-5.452 0-3.303 1.44-5.444 3.888-5.444s3.873 2.127 3.873 5.437c0 3.333-1.418 5.459-3.873 5.459zm0-1.147c1.644 0 2.55-1.674 2.55-4.305 0-2.594-.92-4.289-2.55-4.289s-2.565 1.71-2.565 4.282c0 2.631.913 4.312 2.565 4.312zm9.675 1.147c-2.463 0-3.888-2.119-3.888-5.452 0-3.303 1.44-5.444 3.888-5.444s3.874 2.127 3.874 5.437c0 3.333-1.418 5.459-3.874 5.459zm0-1.147c1.645 0 2.551-1.674 2.551-4.305 0-2.594-.921-4.289-2.551-4.289-1.63 0-2.565 1.71-2.565 4.282 0 2.631.914 4.312 2.565 4.312zm7.03-4.334a.823.823 0 0 1-.833-.833c0-.475.365-.833.833-.833.475 0 .833.358.833.833a.819.819 0 0 1-.833.833zm-.46 7.184h-.987l.716-3.354h1.367l-1.096 3.354zm-139.792 50.122v-6.826h-1.097v-1.052h1.097v-.731c0-1.454.635-2.105 2.097-2.105.248 0 .468.022.709.066v1.052a3.055 3.055 0 0 0-.592-.058c-.658 0-.936.307-.943 1.045v.731h1.535v1.052h-1.535v6.826h-1.271zm7.665.073c-2.214 0-3.632-1.571-3.632-4.012 0-2.448 1.418-4.012 3.632-4.012 2.215 0 3.632 1.564 3.632 4.012 0 2.441-1.417 4.012-3.632 4.012zm0-1.133c1.469 0 2.339-1.074 2.339-2.879 0-1.813-.87-2.88-2.339-2.88-1.469 0-2.338 1.075-2.338 2.88s.877 2.879 2.338 2.879zm5.568 1.06v-7.878h1.199v1.279h.029c.234-.826.987-1.352 1.908-1.352.153 0 .38.022.489.051v1.257c-.102-.044-.438-.088-.658-.088-1.023 0-1.695.746-1.695 1.856v4.875h-1.272zm8.857 2.024h-1.118c-.818-1.023-1.973-3.025-1.973-6.402 0-3.383 1.111-4.969 2.046-6.16h1.067c-.621.723-1.82 2.799-1.82 6.146s1.126 5.254 1.798 6.416zm1.812-2.024v-7.878h1.272v7.878h-1.272zm.636-9.15a.81.81 0 0 1-.804-.804c0-.446.365-.804.804-.804.446 0 .804.358.804.804a.806.806 0 0 1-.804.804zm3.032 9.15v-7.878h1.199v1.279h.029c.497-.892 1.352-1.352 2.572-1.352 1.732 0 2.807 1.111 2.807 2.901v5.05h-1.272v-4.831c0-1.286-.672-1.988-1.915-1.988-1.293 0-2.148.892-2.148 2.244v4.575h-1.272zm9.317-9.654h1.272v1.776h1.535v1.052h-1.535v4.728c0 .724.307 1.053.979 1.053.154 0 .461-.022.548-.037v1.075a4.65 4.65 0 0 1-.818.065c-1.425 0-1.981-.592-1.981-2.104v-4.78h-1.096v-1.052h1.096v-1.776zm9.069 9.654v-7.878h1.271v7.878h-1.271zm.635-9.15a.81.81 0 0 1-.803-.804c0-.446.365-.804.803-.804.446 0 .804.358.804.804a.806.806 0 0 1-.804.804zm14.447 6.95h-7.14v-1.125h7.14v1.125zm0-2.799h-7.14v-1.125h7.14v1.125zm10.289 5.174c-2.463 0-3.888-2.119-3.888-5.452 0-3.303 1.44-5.444 3.888-5.444s3.873 2.127 3.873 5.437c0 3.333-1.417 5.459-3.873 5.459zm0-1.147c1.644 0 2.551-1.674 2.551-4.305 0-2.594-.921-4.289-2.551-4.289-1.63 0-2.565 1.71-2.565 4.282 0 2.631.913 4.312 2.565 4.312zm7.03-4.334a.823.823 0 0 1-.833-.833c0-.475.365-.833.833-.833.475 0 .833.358.833.833a.819.819 0 0 1-.833.833zm-.46 7.184h-.987l.716-3.354h1.367l-1.096 3.354zm8.074-1.878v-7.878h1.271v7.878h-1.271zm.636-9.15a.81.81 0 0 1-.804-.804c0-.446.365-.804.804-.804.445 0 .804.358.804.804a.807.807 0 0 1-.804.804zm14.089 1.988-5.167 2.923v.066l5.167 2.762v1.36l-6.424-3.589v-1.037l6.424-3.844v1.359zm13.526 5.978v1.184h-6.402v-10.546h1.315v9.362h5.087zm3.361 1.184h-1.316v-10.546h1.316v10.546zm13.037-10.546v10.546h-1.228v-8.127h-.051l-3.362 8.054h-1.111l-3.361-8.054h-.051v8.127h-1.228v-10.546h1.527l3.64 8.799h.058l3.64-8.799h1.527zm3.96 10.546h-1.315v-10.546h1.315v10.546zm6.701 0h-1.315v-9.362h-3.398v-1.184h8.112v1.184h-3.399v9.362zm6.263-5.306a.823.823 0 0 1-.833-.833c0-.475.365-.833.833-.833.475 0 .833.358.833.833a.819.819 0 0 1-.833.833zm-.461 7.184h-.986l.716-3.354h1.367l-1.097 3.354zm8.075-1.878v-7.878h1.271v7.878h-1.271zm.635-9.15a.81.81 0 0 1-.803-.804c0-.446.365-.804.803-.804.446 0 .804.358.804.804a.806.806 0 0 1-.804.804zm7.286 5.584v3.347h-1.184v-3.347h-3.12v-1.184h3.12v-3.267h1.184v3.267h3.121v1.184h-3.121zm9.646 0v3.347h-1.184v-3.347h-3.12v-1.184h3.12v-3.267h1.184v3.267h3.121v1.184h-3.121zm4.801 5.59c.672-1.162 1.798-3.069 1.798-6.416 0-3.347-1.184-5.423-1.813-6.146h1.067c.936 1.191 2.047 2.777 2.047 6.16 0 3.377-1.162 5.379-1.981 6.402h-1.118zM100.89 466.757c.869.08 1.308.657 1.308 1.724v2.441c0 1.155.504 1.637 1.71 1.637h.329v1.031h-.439c-1.892 0-2.799-.833-2.799-2.58v-2.112c0-1.155-.321-1.542-1.3-1.542v-1.396c.972 0 1.3-.387 1.3-1.556v-1.864c0-1.703.899-2.514 2.799-2.514h.439v1.03h-.329c-1.22 0-1.71.475-1.71 1.645v2.163c0 1.052-.431 1.622-1.308 1.71v.183zm177.964 6.416c.673-1.162 1.798-3.069 1.798-6.416 0-3.347-1.184-5.423-1.812-6.146h1.067c.935 1.191 2.046 2.777 2.046 6.16 0 3.377-1.162 5.379-1.981 6.402h-1.118zm6.877-7.33a.824.824 0 0 1-.834-.833.82.82 0 0 1 .834-.833c.475 0 .833.358.833.833a.819.819 0 0 1-.833.833zm-.461 7.184h-.986l.716-3.354h1.366l-1.096 3.354zm-216.999 19.73v-.183c-.877-.088-1.308-.658-1.308-1.71v-2.163c0-1.17-.49-1.645-1.71-1.645h-.33v-1.03h.44c1.9 0 2.798.811 2.798 2.514v1.864c0 1.169.33 1.556 1.301 1.556v1.396c-.98 0-1.3.387-1.3 1.542v2.112c0 1.747-.907 2.58-2.8 2.58h-.438v-1.031h.329c1.206 0 1.71-.482 1.71-1.637v-2.441c0-1.067.438-1.644 1.308-1.724z"/><path fill="#9A77FF" d="M112.664 104.271v8.47c0 1.6-.745 2.317-2.419 2.317h-.226v-1.075h.197c.862 0 1.177-.329 1.177-1.22v-8.492h1.271zm-.635-1.272a.81.81 0 0 1-.804-.804c0-.446.365-.804.804-.804.445 0 .803.358.803.804a.806.806 0 0 1-.803.804zm5.604 8.119c1.286 0 2.229-.833 2.229-1.965v-.636l-2.061.131c-1.184.073-1.797.505-1.797 1.265 0 .73.635 1.205 1.629 1.205zm-.27 1.104c-1.601 0-2.66-.921-2.66-2.317 0-1.352 1.037-2.148 2.952-2.265l2.207-.132v-.657c0-.98-.643-1.521-1.805-1.521-.913 0-1.593.468-1.747 1.214h-1.22c.037-1.33 1.33-2.346 2.982-2.346 1.863 0 3.062.994 3.062 2.543v5.408h-1.206v-1.367h-.029c-.446.877-1.433 1.44-2.536 1.44zm12.482-7.951-2.909 7.878h-1.286l-2.909-7.878h1.33l2.207 6.504h.029l2.215-6.504h1.323zm4.07 6.847c1.286 0 2.229-.833 2.229-1.965v-.636l-2.061.131c-1.184.073-1.798.505-1.798 1.265 0 .73.636 1.205 1.63 1.205zm-.271 1.104c-1.6 0-2.66-.921-2.66-2.317 0-1.352 1.038-2.148 2.953-2.265l2.207-.132v-.657c0-.98-.644-1.521-1.806-1.521-.913 0-1.593.468-1.746 1.214h-1.221c.037-1.33 1.33-2.346 2.982-2.346 1.864 0 3.062.994 3.062 2.543v5.408h-1.206v-1.367h-.029c-.446.877-1.432 1.44-2.536 1.44zm7.096 0a.823.823 0 0 1-.833-.833c0-.475.365-.833.833-.833.475 0 .833.358.833.833a.819.819 0 0 1-.833.833zm3.434-.073v-7.878h1.272v7.878h-1.272zm.636-9.15a.81.81 0 0 1-.804-.804c0-.446.365-.804.804-.804.446 0 .804.358.804.804a.806.806 0 0 1-.804.804zm6.277 9.223c-2.214 0-3.632-1.571-3.632-4.012 0-2.448 1.418-4.012 3.632-4.012 2.214 0 3.632 1.564 3.632 4.012 0 2.441-1.418 4.012-3.632 4.012zm0-1.133c1.469 0 2.339-1.074 2.339-2.879 0-1.813-.87-2.88-2.339-2.88-1.469 0-2.339 1.075-2.339 2.88s.877 2.879 2.339 2.879zm6.167 1.133a.824.824 0 0 1-.833-.833.82.82 0 0 1 .833-.833c.475 0 .834.358.834.833a.82.82 0 0 1-.834.833zm3.522-10.619h3.983c1.981 0 3.377 1.389 3.377 3.384 0 2.002-1.411 3.398-3.391 3.398h-2.653v3.764h-1.316v-10.546zm1.316 1.17v4.443h2.324c1.505 0 2.368-.826 2.368-2.229 0-1.396-.855-2.214-2.368-2.214h-2.324zm7.994 9.376v-7.878h1.199v1.279h.029c.234-.826.987-1.352 1.907-1.352.154 0 .38.022.49.051v1.257c-.102-.044-.438-.088-.658-.088-1.023 0-1.695.746-1.695 1.856v4.875h-1.272zm5.422 0v-7.878h1.272v7.878h-1.272zm.636-9.15a.811.811 0 0 1-.804-.804c0-.446.366-.804.804-.804.446 0 .804.358.804.804a.806.806 0 0 1-.804.804zm3.032 9.15v-7.878h1.199v1.279h.029c.497-.892 1.352-1.352 2.573-1.352 1.732 0 2.806 1.111 2.806 2.901v5.05h-1.272v-4.831c0-1.286-.672-1.988-1.914-1.988-1.294 0-2.149.892-2.149 2.244v4.575h-1.272zm9.318-9.654h1.271v1.776h1.535v1.052h-1.535v4.728c0 .724.307 1.053.98 1.053.153 0 .46-.022.548-.037v1.075a4.672 4.672 0 0 1-.819.065c-1.425 0-1.98-.592-1.98-2.104v-4.78h-1.097v-1.052h1.097v-1.776zm4.472 6.753h1.322c.125 1.14 1.206 1.892 2.712 1.892 1.425 0 2.463-.752 2.463-1.79 0-.892-.622-1.44-2.039-1.805l-1.352-.351c-1.944-.497-2.807-1.352-2.807-2.784 0-1.754 1.535-2.982 3.727-2.982 2.098 0 3.618 1.242 3.676 3.011h-1.315c-.117-1.133-1.03-1.827-2.404-1.827-1.367 0-2.317.709-2.317 1.739 0 .797.585 1.272 2.017 1.644l1.104.293c2.185.548 3.069 1.388 3.069 2.901 0 1.929-1.52 3.135-3.946 3.135-2.237 0-3.786-1.213-3.91-3.076zm10.245-6.753h1.272v1.776h1.534v1.052h-1.534v4.728c0 .724.307 1.053.979 1.053.153 0 .46-.022.548-.037v1.075a4.659 4.659 0 0 1-.818.065c-1.426 0-1.981-.592-1.981-2.104v-4.78h-1.096v-1.052h1.096v-1.776zm4.816 9.654v-7.878h1.198v1.279h.029c.234-.826.987-1.352 1.908-1.352.153 0 .38.022.489.051v1.257c-.102-.044-.438-.088-.657-.088-1.023 0-1.696.746-1.696 1.856v4.875h-1.271zm8.126-6.833c-1.235 0-2.127.899-2.215 2.229h4.334c-.029-1.338-.877-2.229-2.119-2.229zm2.09 4.582h1.257c-.22 1.352-1.586 2.324-3.267 2.324-2.214 0-3.61-1.542-3.61-3.983s1.403-4.041 3.552-4.041c2.104 0 3.42 1.483 3.42 3.866v.497h-5.657v.073c0 1.498.921 2.47 2.324 2.47.987 0 1.754-.468 1.981-1.206zm5.86 1.22c1.286 0 2.229-.833 2.229-1.965v-.636l-2.061.131c-1.184.073-1.797.505-1.797 1.265 0 .73.635 1.205 1.629 1.205zm-.27 1.104c-1.601 0-2.66-.921-2.66-2.317 0-1.352 1.037-2.148 2.952-2.265l2.207-.132v-.657c0-.98-.643-1.521-1.805-1.521-.913 0-1.593.468-1.747 1.214h-1.22c.037-1.33 1.33-2.346 2.982-2.346 1.863 0 3.062.994 3.062 2.543v5.408h-1.206v-1.367h-.029c-.446.877-1.433 1.44-2.536 1.44zm6.058-.073v-7.878h1.198v1.279h.029c.373-.841 1.214-1.352 2.237-1.352 1.067 0 1.863.54 2.207 1.491h.029c.446-.936 1.374-1.491 2.477-1.491 1.557 0 2.566 1.008 2.566 2.572v5.379h-1.272v-5.087c0-1.088-.607-1.732-1.659-1.732s-1.805.782-1.805 1.864v4.955h-1.272v-5.24c0-.95-.65-1.579-1.637-1.579-1.052 0-1.827.826-1.827 1.93v4.889h-1.271zm14.075-5.306a.824.824 0 0 1-.834-.833.82.82 0 0 1 .834-.833c.475 0 .833.358.833.833a.819.819 0 0 1-.833.833zm-.461 7.184h-.986l.716-3.354h1.366l-1.096 3.354zm-96.159 255.122v-7.878h1.199v1.279h.029c.497-.892 1.352-1.352 2.573-1.352 1.732 0 2.806 1.111 2.806 2.901v5.05h-1.272v-4.831c0-1.286-.672-1.988-1.914-1.988-1.294 0-2.149.892-2.149 2.244v4.575h-1.272zm12.044-6.833c-1.236 0-2.127.899-2.215 2.229h4.334c-.029-1.338-.877-2.229-2.119-2.229zm2.09 4.582h1.257c-.22 1.352-1.586 2.324-3.267 2.324-2.214 0-3.61-1.542-3.61-3.983s1.403-4.041 3.551-4.041c2.105 0 3.421 1.483 3.421 3.866v.497h-5.657v.073c0 1.498.921 2.47 2.324 2.47.987 0 1.754-.468 1.981-1.206zm13.256-5.627-2.207 7.878h-1.286l-1.798-6.124h-.029l-1.798 6.124h-1.286l-2.207-7.878h1.257l1.6 6.438h.029l1.805-6.438h1.228l1.805 6.438h.03l1.6-6.438h1.257zm7.336-1.498v4.041h2.595c1.352 0 2.119-.731 2.119-2.024 0-1.265-.819-2.017-2.178-2.017h-2.536zm0 5.203v4.173h-1.315v-10.546h4.027c2.031 0 3.361 1.243 3.361 3.143 0 1.469-.796 2.609-2.119 3.025l2.441 4.378h-1.542l-2.258-4.173h-2.595zm10.743 3.142c1.286 0 2.229-.833 2.229-1.965v-.636l-2.061.131c-1.184.073-1.798.505-1.798 1.265 0 .73.636 1.205 1.63 1.205zm-.271 1.104c-1.6 0-2.66-.921-2.66-2.317 0-1.352 1.038-2.148 2.952-2.265l2.208-.132v-.657c0-.98-.644-1.521-1.806-1.521-.913 0-1.593.468-1.746 1.214h-1.221c.037-1.33 1.33-2.346 2.982-2.346 1.864 0 3.062.994 3.062 2.543v5.408h-1.206v-1.367h-.029c-.446.877-1.432 1.44-2.536 1.44zm6.058-.073v-7.878h1.199v1.279h.029c.497-.892 1.352-1.352 2.572-1.352 1.732 0 2.807 1.111 2.807 2.901v5.05h-1.272v-4.831c0-1.286-.672-1.988-1.915-1.988-1.293 0-2.148.892-2.148 2.244v4.575h-1.272zm11.89.073c-1.981 0-3.377-1.608-3.377-4.012 0-2.405 1.389-4.012 3.347-4.012 1.126 0 2.032.489 2.514 1.352h.03v-4.407h1.271v11.006h-1.213v-1.33h-.022c-.511.906-1.41 1.403-2.55 1.403zm.226-6.892c-1.381 0-2.302 1.141-2.302 2.88 0 1.746.921 2.879 2.302 2.879 1.367 0 2.295-1.162 2.295-2.879 0-1.71-.928-2.88-2.295-2.88zm9.208 6.892c-2.214 0-3.632-1.571-3.632-4.012 0-2.448 1.418-4.012 3.632-4.012 2.214 0 3.632 1.564 3.632 4.012 0 2.441-1.418 4.012-3.632 4.012zm0-1.133c1.469 0 2.339-1.074 2.339-2.879 0-1.813-.87-2.88-2.339-2.88-1.469 0-2.339 1.075-2.339 2.88s.877 2.879 2.339 2.879zm5.568 1.06v-7.878h1.199v1.279h.029c.373-.841 1.213-1.352 2.236-1.352 1.067 0 1.864.54 2.207 1.491h.029c.446-.936 1.374-1.491 2.478-1.491 1.557 0 2.565 1.008 2.565 2.572v5.379h-1.272v-5.087c0-1.088-.606-1.732-1.658-1.732-1.053 0-1.806.782-1.806 1.864v4.955h-1.271v-5.24c0-.95-.651-1.579-1.637-1.579-1.053 0-1.827.826-1.827 1.93v4.889h-1.272zm16.545 2.024h-1.118c-.819-1.023-1.973-3.025-1.973-6.402 0-3.383 1.111-4.969 2.046-6.16h1.067c-.621.723-1.82 2.799-1.82 6.146s1.126 5.254 1.798 6.416zm1.147 0c.672-1.162 1.798-3.069 1.798-6.416 0-3.347-1.184-5.423-1.813-6.146h1.067c.936 1.191 2.047 2.777 2.047 6.16 0 3.377-1.162 5.379-1.981 6.402h-1.118zM119.59 463.271l-2.207 7.878h-1.286l-1.798-6.124h-.029l-1.798 6.124h-1.286l-2.207-7.878h1.257l1.6 6.438h.029l1.806-6.438h1.227l1.805 6.438h.03l1.6-6.438h1.257zm1.68 7.878v-7.878h1.199v1.279h.029c.234-.826.987-1.352 1.908-1.352.153 0 .38.022.489.051v1.257c-.102-.044-.438-.088-.658-.088-1.023 0-1.695.746-1.695 1.856v4.875h-1.272zm5.422 0v-7.878h1.272v7.878h-1.272zm.636-9.15a.811.811 0 0 1-.804-.804c0-.446.366-.804.804-.804.446 0 .804.358.804.804a.806.806 0 0 1-.804.804zm3.449-.504h1.272v1.776h1.534v1.052h-1.534v4.728c0 .724.307 1.053.979 1.053.153 0 .46-.022.548-.037v1.075a4.659 4.659 0 0 1-.818.065c-1.426 0-1.981-.592-1.981-2.104v-4.78h-1.096v-1.052h1.096v-1.776zm7.739 2.821c-1.235 0-2.127.899-2.215 2.229h4.334c-.029-1.338-.877-2.229-2.119-2.229zm2.09 4.582h1.257c-.219 1.352-1.586 2.324-3.267 2.324-2.214 0-3.61-1.542-3.61-3.983s1.403-4.041 3.552-4.041c2.104 0 3.42 1.483 3.42 3.866v.497h-5.657v.073c0 1.498.921 2.47 2.324 2.47.987 0 1.754-.468 1.981-1.206zm3.288 2.251v-7.878h1.199v1.279h.029c.234-.826.986-1.352 1.907-1.352.154 0 .38.022.49.051v1.257c-.103-.044-.439-.088-.658-.088-1.023 0-1.695.746-1.695 1.856v4.875h-1.272zm5.656.073a.823.823 0 0 1-.833-.833c0-.475.365-.833.833-.833.475 0 .833.358.833.833a.819.819 0 0 1-.833.833zm7.147-8.024c2.009 0 3.376 1.607 3.376 4.012 0 2.404-1.359 4.012-3.347 4.012-1.118 0-2.017-.49-2.514-1.352h-.029v3.91h-1.272v-10.509h1.206v1.279h.029c.461-.819 1.462-1.352 2.551-1.352zm-.234 6.891c1.388 0 2.309-1.133 2.309-2.879 0-1.739-.921-2.88-2.309-2.88-1.36 0-2.288 1.17-2.288 2.88 0 1.717.928 2.879 2.288 2.879zm5.553 1.06v-7.878h1.199v1.279h.029c.234-.826.987-1.352 1.908-1.352.153 0 .38.022.489.051v1.257c-.102-.044-.438-.088-.658-.088-1.023 0-1.695.746-1.695 1.856v4.875h-1.272zm5.422 0v-7.878h1.272v7.878h-1.272zm.636-9.15a.811.811 0 0 1-.804-.804c0-.446.366-.804.804-.804.446 0 .804.358.804.804a.806.806 0 0 1-.804.804zm3.032 9.15v-7.878h1.199v1.279h.029c.497-.892 1.352-1.352 2.573-1.352 1.732 0 2.806 1.111 2.806 2.901v5.05h-1.272v-4.831c0-1.286-.672-1.988-1.914-1.988-1.294 0-2.149.892-2.149 2.244v4.575h-1.272zm9.318-9.654h1.271v1.776h1.535v1.052h-1.535v4.728c0 .724.307 1.053.98 1.053.153 0 .46-.022.548-.037v1.075a4.672 4.672 0 0 1-.819.065c-1.425 0-1.98-.592-1.98-2.104v-4.78h-1.096v-1.052h1.096v-1.776zm4.888 9.654v-11.006h1.272v11.006h-1.272zm3.668 0v-7.878h1.199v1.279h.029c.497-.892 1.352-1.352 2.573-1.352 1.732 0 2.806 1.111 2.806 2.901v5.05h-1.272v-4.831c0-1.286-.672-1.988-1.914-1.988-1.294 0-2.149.892-2.149 2.244v4.575h-1.272zm12.409 2.024h-1.118c-.819-1.023-1.973-3.025-1.973-6.402 0-3.383 1.111-4.969 2.046-6.16h1.067c-.621.723-1.82 2.799-1.82 6.146s1.126 5.254 1.798 6.416zm5.918-2.024v-7.878h1.199v1.279h.029c.234-.826.987-1.352 1.908-1.352.153 0 .38.022.489.051v1.257c-.102-.044-.438-.088-.657-.088-1.024 0-1.696.746-1.696 1.856v4.875h-1.272zm5.656.073a.824.824 0 0 1-.833-.833.82.82 0 0 1 .833-.833c.475 0 .833.358.833.833a.819.819 0 0 1-.833.833zm3.361-.073v-7.878h1.199v1.279h.029c.497-.892 1.352-1.352 2.573-1.352 1.732 0 2.806 1.111 2.806 2.901v5.05h-1.272v-4.831c0-1.286-.672-1.988-1.914-1.988-1.294 0-2.149.892-2.149 2.244v4.575h-1.272zm12.044-6.833c-1.235 0-2.127.899-2.215 2.229h4.334c-.029-1.338-.877-2.229-2.119-2.229zm2.09 4.582h1.257c-.219 1.352-1.586 2.324-3.267 2.324-2.214 0-3.61-1.542-3.61-3.983s1.403-4.041 3.552-4.041c2.104 0 3.42 1.483 3.42 3.866v.497h-5.657v.073c0 1.498.921 2.47 2.324 2.47.987 0 1.754-.468 1.981-1.206zm5.904-.767h-.029l-1.922 3.018h-1.418l2.697-3.939-2.653-3.939h1.418l1.922 2.974h.029l1.9-2.974h1.418l-2.668 3.888 2.631 3.99h-1.417l-1.908-3.018zm5.503-6.636h1.271v1.776h1.535v1.052h-1.535v4.728c0 .724.307 1.053.98 1.053.153 0 .46-.022.548-.037v1.075a4.672 4.672 0 0 1-.819.065c-1.425 0-1.98-.592-1.98-2.104v-4.78h-1.097v-1.052h1.097v-1.776zm6.291 9.654h-1.315v-10.546h1.315v10.546zm2.484 0v-7.878h1.199v1.279h.029c.497-.892 1.352-1.352 2.573-1.352 1.732 0 2.806 1.111 2.806 2.901v5.05h-1.272v-4.831c0-1.286-.672-1.988-1.914-1.988-1.294 0-2.149.892-2.149 2.244v4.575h-1.272zm9.318-9.654h1.271v1.776h1.535v1.052h-1.535v4.728c0 .724.307 1.053.98 1.053.153 0 .46-.022.548-.037v1.075a4.672 4.672 0 0 1-.819.065c-1.425 0-1.98-.592-1.98-2.104v-4.78h-1.096v-1.052h1.096v-1.776zm8.323 11.678h-1.118c-.819-1.023-1.973-3.025-1.973-6.402 0-3.383 1.111-4.969 2.046-6.16h1.067c-.621.723-1.82 2.799-1.82 6.146s1.126 5.254 1.798 6.416zm1.147 0c.672-1.162 1.798-3.069 1.798-6.416 0-3.347-1.184-5.423-1.813-6.146h1.067c.936 1.191 2.047 2.777 2.047 6.16 0 3.377-1.162 5.379-1.981 6.402h-1.118z"/><path fill="#FFC093" d="M112.664 130.271v8.47c0 1.6-.745 2.317-2.419 2.317h-.226v-1.075h.197c.862 0 1.177-.329 1.177-1.22v-8.492h1.271zm-.635-1.272a.81.81 0 0 1-.804-.804c0-.446.365-.804.804-.804.445 0 .803.358.803.804a.806.806 0 0 1-.803.804zm5.604 8.119c1.286 0 2.229-.833 2.229-1.965v-.636l-2.061.131c-1.184.073-1.797.505-1.797 1.265 0 .73.635 1.205 1.629 1.205zm-.27 1.104c-1.601 0-2.66-.921-2.66-2.317 0-1.352 1.037-2.148 2.952-2.265l2.207-.132v-.657c0-.98-.643-1.521-1.805-1.521-.913 0-1.593.468-1.747 1.214h-1.22c.037-1.33 1.33-2.346 2.982-2.346 1.863 0 3.062.994 3.062 2.543v5.408h-1.206v-1.367h-.029c-.446.877-1.433 1.44-2.536 1.44zm12.482-7.951-2.909 7.878h-1.286l-2.909-7.878h1.33l2.207 6.504h.029l2.215-6.504h1.323zm4.07 6.847c1.286 0 2.229-.833 2.229-1.965v-.636l-2.061.131c-1.184.073-1.798.505-1.798 1.265 0 .73.636 1.205 1.63 1.205zm-.271 1.104c-1.6 0-2.66-.921-2.66-2.317 0-1.352 1.038-2.148 2.953-2.265l2.207-.132v-.657c0-.98-.644-1.521-1.806-1.521-.913 0-1.593.468-1.746 1.214h-1.221c.037-1.33 1.33-2.346 2.982-2.346 1.864 0 3.062.994 3.062 2.543v5.408h-1.206v-1.367h-.029c-.446.877-1.432 1.44-2.536 1.44zm7.096 0a.823.823 0 0 1-.833-.833c0-.475.365-.833.833-.833.475 0 .833.358.833.833a.819.819 0 0 1-.833.833zm3.434-.073v-7.878h1.272v7.878h-1.272zm.636-9.15a.81.81 0 0 1-.804-.804c0-.446.365-.804.804-.804.446 0 .804.358.804.804a.806.806 0 0 1-.804.804zm6.277 9.223c-2.214 0-3.632-1.571-3.632-4.012 0-2.448 1.418-4.012 3.632-4.012 2.214 0 3.632 1.564 3.632 4.012 0 2.441-1.418 4.012-3.632 4.012zm0-1.133c1.469 0 2.339-1.074 2.339-2.879 0-1.813-.87-2.88-2.339-2.88-1.469 0-2.339 1.075-2.339 2.88s.877 2.879 2.339 2.879zm6.167 1.133a.824.824 0 0 1-.833-.833.82.82 0 0 1 .833-.833c.475 0 .834.358.834.833a.82.82 0 0 1-.834.833zm4.838-.073h-1.316v-10.546h1.316v10.546zm7.095-10.721c2.989 0 4.86 2.105 4.86 5.452s-1.871 5.444-4.86 5.444c-2.989 0-4.86-2.097-4.86-5.444s1.871-5.452 4.86-5.452zm0 1.213c-2.156 0-3.508 1.637-3.508 4.239 0 2.594 1.352 4.231 3.508 4.231 2.156 0 3.508-1.637 3.508-4.231 0-2.602-1.352-4.239-3.508-4.239zm13.629 8.324v1.184h-6.533v-10.546h6.533v1.184h-5.218v3.384h4.948v1.169h-4.948v3.625h5.218zm4.94-1.834h-.029l-1.922 3.018h-1.418l2.697-3.939-2.653-3.939h1.418l1.922 2.974h.029l1.9-2.974h1.418l-2.668 3.888 2.631 3.99h-1.417l-1.908-3.018zm11.451-2.295h-1.249c-.161-.841-.863-1.506-2.047-1.506-1.373 0-2.309 1.141-2.309 2.88 0 1.79.95 2.879 2.324 2.879 1.096 0 1.827-.511 2.046-1.461h1.25c-.212 1.534-1.505 2.594-3.303 2.594-2.163 0-3.61-1.535-3.61-4.012 0-2.419 1.439-4.012 3.595-4.012 1.951 0 3.143 1.257 3.303 2.638zm4.977-1.52c-1.235 0-2.127.899-2.215 2.229h4.334c-.029-1.338-.877-2.229-2.119-2.229zm2.09 4.582h1.257c-.219 1.352-1.586 2.324-3.267 2.324-2.214 0-3.61-1.542-3.61-3.983s1.403-4.041 3.552-4.041c2.104 0 3.42 1.483 3.42 3.866v.497h-5.657v.073c0 1.498.921 2.47 2.324 2.47.987 0 1.754-.468 1.981-1.206zm7.073-5.7c2.01 0 3.377 1.607 3.377 4.012 0 2.404-1.36 4.012-3.347 4.012-1.118 0-2.017-.49-2.514-1.352h-.03v3.91h-1.271v-10.509h1.206v1.279h.029c.46-.819 1.462-1.352 2.55-1.352zm-.233 6.891c1.388 0 2.309-1.133 2.309-2.879 0-1.739-.921-2.88-2.309-2.88-1.36 0-2.288 1.17-2.288 2.88 0 1.717.928 2.879 2.288 2.879zm5.97-8.594h1.271v1.776h1.535v1.052h-1.535v4.728c0 .724.307 1.053.98 1.053.153 0 .46-.022.548-.037v1.075a4.672 4.672 0 0 1-.819.065c-1.425 0-1.98-.592-1.98-2.104v-4.78h-1.096v-1.052h1.096v-1.776zm4.888 9.654v-7.878h1.272v7.878h-1.272zm.636-9.15a.811.811 0 0 1-.804-.804c0-.446.366-.804.804-.804.446 0 .804.358.804.804a.806.806 0 0 1-.804.804zm6.277 9.223c-2.214 0-3.632-1.571-3.632-4.012 0-2.448 1.418-4.012 3.632-4.012 2.215 0 3.632 1.564 3.632 4.012 0 2.441-1.417 4.012-3.632 4.012zm0-1.133c1.469 0 2.339-1.074 2.339-2.879 0-1.813-.87-2.88-2.339-2.88-1.469 0-2.338 1.075-2.338 2.88s.877 2.879 2.338 2.879zm5.568 1.06v-7.878h1.199v1.279h.029c.497-.892 1.352-1.352 2.573-1.352 1.732 0 2.806 1.111 2.806 2.901v5.05h-1.272v-4.831c0-1.286-.672-1.988-1.914-1.988-1.294 0-2.149.892-2.149 2.244v4.575h-1.272zm9.939-5.306a.823.823 0 0 1-.833-.833c0-.475.365-.833.833-.833.475 0 .833.358.833.833a.819.819 0 0 1-.833.833zm-.461 7.184h-.986l.716-3.354h1.367l-1.097 3.354zM111.624 258.198c2.01 0 3.377 1.607 3.377 4.012 0 2.404-1.36 4.012-3.348 4.012-1.118 0-2.017-.49-2.514-1.352h-.029v3.91h-1.271v-10.509h1.205v1.279h.03c.46-.819 1.461-1.352 2.55-1.352zm-.234 6.891c1.389 0 2.31-1.133 2.31-2.879 0-1.739-.921-2.88-2.31-2.88-1.359 0-2.287 1.17-2.287 2.88 0 1.717.928 2.879 2.287 2.879zm12.124-6.818v7.878h-1.199v-1.301h-.029c-.489.906-1.374 1.374-2.58 1.374-1.724 0-2.799-1.111-2.799-2.901v-5.05h1.272v4.83c0 1.294.68 1.988 1.915 1.988 1.293 0 2.148-.891 2.148-2.243v-4.575h1.272zm6.204 7.951c-1.147 0-2.054-.497-2.565-1.403h-.029v1.33h-1.206v-11.006h1.271v4.407h.03c.497-.863 1.41-1.352 2.528-1.352 1.981 0 3.333 1.607 3.333 4.012 0 2.412-1.352 4.012-3.362 4.012zm-.227-6.892c-1.374 0-2.309 1.177-2.309 2.88 0 1.71.935 2.879 2.309 2.879 1.382 0 2.288-1.125 2.288-2.879 0-1.747-.906-2.88-2.288-2.88zm5.605 6.819v-11.006h1.272v11.006h-1.272zm3.741 0v-7.878h1.272v7.878h-1.272zm.636-9.15a.811.811 0 0 1-.804-.804c0-.446.366-.804.804-.804.446 0 .804.358.804.804a.806.806 0 0 1-.804.804zm9.544 3.837h-1.25c-.16-.841-.862-1.506-2.046-1.506-1.374 0-2.309 1.141-2.309 2.88 0 1.79.95 2.879 2.324 2.879 1.096 0 1.827-.511 2.046-1.461h1.25c-.212 1.534-1.506 2.594-3.304 2.594-2.163 0-3.61-1.535-3.61-4.012 0-2.419 1.44-4.012 3.596-4.012 1.951 0 3.142 1.257 3.303 2.638zm12.525 0h-1.25c-.161-.841-.862-1.506-2.046-1.506-1.374 0-2.309 1.141-2.309 2.88 0 1.79.95 2.879 2.324 2.879 1.096 0 1.827-.511 2.046-1.461h1.25c-.212 1.534-1.506 2.594-3.304 2.594-2.163 0-3.61-1.535-3.61-4.012 0-2.419 1.44-4.012 3.596-4.012 1.951 0 3.142 1.257 3.303 2.638zm1.907 5.313v-11.006h1.271v11.006h-1.271zm6.24-1.031c1.287 0 2.229-.833 2.229-1.965v-.636l-2.061.131c-1.184.073-1.797.505-1.797 1.265 0 .73.635 1.205 1.629 1.205zm-.27 1.104c-1.601 0-2.66-.921-2.66-2.317 0-1.352 1.038-2.148 2.952-2.265l2.207-.132v-.657c0-.98-.643-1.521-1.805-1.521-.913 0-1.593.468-1.746 1.214h-1.221c.037-1.33 1.33-2.346 2.982-2.346 1.863 0 3.062.994 3.062 2.543v5.408h-1.206v-1.367h-.029c-.446.877-1.433 1.44-2.536 1.44zm5.926-5.751c0-1.331 1.206-2.266 2.916-2.266 1.601 0 2.814.957 2.865 2.251h-1.221c-.08-.738-.723-1.199-1.688-1.199-.972 0-1.622.461-1.622 1.148 0 .533.424.891 1.33 1.118l1.199.3c1.593.401 2.163.957 2.163 2.104 0 1.345-1.294 2.295-3.114 2.295-1.695 0-2.923-.921-3.047-2.287h1.279c.131.803.782 1.235 1.856 1.235s1.747-.446 1.747-1.155c0-.555-.329-.848-1.228-1.082l-1.381-.358c-1.381-.358-2.054-1.052-2.054-2.104zm7.79 0c0-1.331 1.206-2.266 2.916-2.266 1.601 0 2.814.957 2.865 2.251h-1.221c-.08-.738-.723-1.199-1.688-1.199-.972 0-1.622.461-1.622 1.148 0 .533.424.891 1.33 1.118l1.198.3c1.594.401 2.164.957 2.164 2.104 0 1.345-1.294 2.295-3.114 2.295-1.695 0-2.923-.921-3.047-2.287h1.279c.131.803.782 1.235 1.856 1.235s1.747-.446 1.747-1.155c0-.555-.329-.848-1.228-1.082l-1.381-.358c-1.382-.358-2.054-1.052-2.054-2.104zm18.116-2.69-2.434 8.368h-1.242l-2.872-10.546h1.374l2.112 8.609h.058l2.375-8.609h1.33l2.375 8.609h.059l2.112-8.609h1.374L205 266.149h-1.243l-2.433-8.368h-.073zm8.192 8.368v-7.878h1.198v1.279h.029c.234-.826.987-1.352 1.908-1.352.153 0 .38.022.489.051v1.257c-.102-.044-.438-.088-.657-.088-1.023 0-1.696.746-1.696 1.856v4.875h-1.271zm5.422 0v-7.878h1.271v7.878h-1.271zm.635-9.15a.81.81 0 0 1-.803-.804c0-.446.365-.804.803-.804.446 0 .804.358.804.804a.806.806 0 0 1-.804.804zm3.449-.504h1.272v1.776h1.535v1.052h-1.535v4.728c0 .724.307 1.053.979 1.053.154 0 .461-.022.548-.037v1.075a4.659 4.659 0 0 1-.818.065c-1.425 0-1.981-.592-1.981-2.104v-4.78h-1.096v-1.052h1.096v-1.776zm7.739 2.821c-1.235 0-2.127.899-2.214 2.229h4.333c-.029-1.338-.877-2.229-2.119-2.229zm2.09 4.582h1.257c-.219 1.352-1.586 2.324-3.267 2.324-2.214 0-3.61-1.542-3.61-3.983s1.403-4.041 3.552-4.041c2.105 0 3.42 1.483 3.42 3.866v.497h-5.656v.073c0 1.498.92 2.47 2.324 2.47.986 0 1.754-.468 1.98-1.206zm6.336 2.251h-1.316v-9.362H230.4v-1.184h8.112v1.184h-3.398v9.362zm6.934.073c-2.214 0-3.632-1.571-3.632-4.012 0-2.448 1.418-4.012 3.632-4.012 2.215 0 3.633 1.564 3.633 4.012 0 2.441-1.418 4.012-3.633 4.012zm0-1.133c1.469 0 2.339-1.074 2.339-2.879 0-1.813-.87-2.88-2.339-2.88-1.468 0-2.338 1.075-2.338 2.88s.877 2.879 2.338 2.879zm7.045 1.06h-1.316v-10.546h6.402v1.184h-5.086v3.625h4.67v1.169h-4.67v4.568zm7.103 0v-7.878h1.271v7.878h-1.271zm.636-9.15a.81.81 0 0 1-.804-.804c0-.446.365-.804.804-.804.445 0 .804.358.804.804a.807.807 0 0 1-.804.804zm3.105 9.15v-11.006h1.272v11.006h-1.272zm6.811-6.833c-1.235 0-2.127.899-2.215 2.229h4.334c-.029-1.338-.877-2.229-2.119-2.229zm2.09 4.582h1.257c-.22 1.352-1.586 2.324-3.267 2.324-2.214 0-3.61-1.542-3.61-3.983s1.403-4.041 3.552-4.041c2.104 0 3.42 1.483 3.42 3.866v.497h-5.657v.073c0 1.498.921 2.47 2.324 2.47.987 0 1.754-.468 1.981-1.206z"/><path fill="#74BFFF" d="M112.664 155.271v8.47c0 1.6-.745 2.317-2.419 2.317h-.226v-1.075h.197c.862 0 1.177-.329 1.177-1.22v-8.492h1.271zm-.635-1.272a.81.81 0 0 1-.804-.804c0-.446.365-.804.804-.804.445 0 .803.358.803.804a.806.806 0 0 1-.803.804zm5.604 8.119c1.286 0 2.229-.833 2.229-1.965v-.636l-2.061.131c-1.184.073-1.797.505-1.797 1.265 0 .73.635 1.205 1.629 1.205zm-.27 1.104c-1.601 0-2.66-.921-2.66-2.317 0-1.352 1.037-2.148 2.952-2.265l2.207-.132v-.657c0-.98-.643-1.521-1.805-1.521-.913 0-1.593.468-1.747 1.214h-1.22c.037-1.33 1.33-2.346 2.982-2.346 1.863 0 3.062.994 3.062 2.543v5.408h-1.206v-1.367h-.029c-.446.877-1.433 1.44-2.536 1.44zm12.482-7.951-2.909 7.878h-1.286l-2.909-7.878h1.33l2.207 6.504h.029l2.215-6.504h1.323zm4.07 6.847c1.286 0 2.229-.833 2.229-1.965v-.636l-2.061.131c-1.184.073-1.798.505-1.798 1.265 0 .73.636 1.205 1.63 1.205zm-.271 1.104c-1.6 0-2.66-.921-2.66-2.317 0-1.352 1.038-2.148 2.953-2.265l2.207-.132v-.657c0-.98-.644-1.521-1.806-1.521-.913 0-1.593.468-1.746 1.214h-1.221c.037-1.33 1.33-2.346 2.982-2.346 1.864 0 3.062.994 3.062 2.543v5.408h-1.206v-1.367h-.029c-.446.877-1.432 1.44-2.536 1.44zm7.096 0a.823.823 0 0 1-.833-.833c0-.475.365-.833.833-.833.475 0 .833.358.833.833a.819.819 0 0 1-.833.833zm3.434-.073v-7.878h1.272v7.878h-1.272zm.636-9.15a.81.81 0 0 1-.804-.804c0-.446.365-.804.804-.804.446 0 .804.358.804.804a.806.806 0 0 1-.804.804zm6.277 9.223c-2.214 0-3.632-1.571-3.632-4.012 0-2.448 1.418-4.012 3.632-4.012 2.214 0 3.632 1.564 3.632 4.012 0 2.441-1.418 4.012-3.632 4.012zm0-1.133c1.469 0 2.339-1.074 2.339-2.879 0-1.813-.87-2.88-2.339-2.88-1.469 0-2.339 1.075-2.339 2.88s.877 2.879 2.339 2.879zm6.167 1.133a.824.824 0 0 1-.833-.833.82.82 0 0 1 .833-.833c.475 0 .834.358.834.833a.82.82 0 0 1-.834.833zm4.838-.073h-1.316v-10.546h6.402v1.184h-5.086v3.625h4.67v1.169h-4.67v4.568zm7.103 0v-7.878h1.271v7.878h-1.271zm.636-9.15a.81.81 0 0 1-.804-.804c0-.446.365-.804.804-.804.445 0 .803.358.803.804a.806.806 0 0 1-.803.804zm3.105 9.15v-11.006h1.271v11.006h-1.271zm6.81-6.833c-1.235 0-2.126.899-2.214 2.229h4.334c-.029-1.338-.877-2.229-2.12-2.229zm2.091 4.582h1.257c-.22 1.352-1.586 2.324-3.267 2.324-2.215 0-3.61-1.542-3.61-3.983s1.403-4.041 3.551-4.041c2.105 0 3.421 1.483 3.421 3.866v.497h-5.657v.073c0 1.498.921 2.47 2.324 2.47.987 0 1.754-.468 1.981-1.206zm4.325-3.055a.824.824 0 0 1-.833-.833.82.82 0 0 1 .833-.833c.475 0 .834.358.834.833a.82.82 0 0 1-.834.833zm-.46 7.184h-.987l.717-3.354h1.366l-1.096 3.354zm-17.237 170.244-2.207 7.878h-1.286l-1.798-6.124h-.029l-1.798 6.124h-1.286l-2.207-7.878h1.257l1.6 6.438h.029l1.805-6.438h1.228l1.805 6.438h.03l1.6-6.438h1.257zm1.68 7.878v-7.878h1.199v1.279h.029c.234-.826.987-1.352 1.908-1.352.153 0 .38.022.489.051v1.257c-.102-.044-.438-.088-.658-.088-1.023 0-1.695.746-1.695 1.856v4.875h-1.272zm5.422 0v-7.878h1.272v7.878h-1.272zm.636-9.15a.811.811 0 0 1-.804-.804c0-.446.366-.804.804-.804.446 0 .804.358.804.804a.806.806 0 0 1-.804.804zm3.449-.504h1.272v1.776h1.534v1.052h-1.534v4.728c0 .724.307 1.053.979 1.053.153 0 .46-.022.548-.037v1.075a4.659 4.659 0 0 1-.818.065c-1.426 0-1.981-.592-1.981-2.104v-4.78h-1.096v-1.052h1.096v-1.776zm7.739 2.821c-1.235 0-2.127.899-2.215 2.229h4.334c-.029-1.338-.877-2.229-2.119-2.229zm2.09 4.582h1.257c-.219 1.352-1.586 2.324-3.267 2.324-2.214 0-3.61-1.542-3.61-3.983s1.403-4.041 3.552-4.041c2.104 0 3.42 1.483 3.42 3.866v.497h-5.657v.073c0 1.498.921 2.47 2.324 2.47.987 0 1.754-.468 1.981-1.206z"/><path fill="#FF9BAB" d="M276.503 289.248h1.323c.124 1.14 1.205 1.892 2.711 1.892 1.425 0 2.463-.752 2.463-1.79 0-.892-.622-1.44-2.039-1.805l-1.352-.351c-1.944-.497-2.807-1.352-2.807-2.784 0-1.754 1.535-2.982 3.728-2.982 2.097 0 3.617 1.242 3.676 3.011h-1.316c-.117-1.133-1.03-1.827-2.404-1.827-1.367 0-2.317.709-2.317 1.739 0 .797.585 1.272 2.017 1.644l1.104.293c2.185.548 3.069 1.388 3.069 2.901 0 1.929-1.52 3.135-3.946 3.135-2.237 0-3.786-1.213-3.91-3.076zm10.245-6.753h1.272v1.776h1.534v1.052h-1.534v4.728c0 .724.307 1.053.979 1.053.154 0 .46-.022.548-.037v1.075a4.659 4.659 0 0 1-.818.065c-1.425 0-1.981-.592-1.981-2.104v-4.78h-1.096v-1.052h1.096v-1.776zm4.816 9.654v-7.878h1.198v1.279h.029c.234-.826.987-1.352 1.908-1.352.153 0 .38.022.489.051v1.257c-.102-.044-.438-.088-.657-.088-1.023 0-1.696.746-1.696 1.856v4.875h-1.271zm5.422 0v-7.878h1.271v7.878h-1.271zm.635-9.15a.81.81 0 0 1-.803-.804c0-.446.365-.804.803-.804.446 0 .804.358.804.804a.806.806 0 0 1-.804.804zm3.033 9.15v-7.878h1.198v1.279h.03c.496-.892 1.352-1.352 2.572-1.352 1.732 0 2.806 1.111 2.806 2.901v5.05h-1.271v-4.831c0-1.286-.673-1.988-1.915-1.988-1.294 0-2.149.892-2.149 2.244v4.575h-1.271zm12.087-1.133c1.381 0 2.316-1.147 2.316-2.835 0-1.696-.935-2.851-2.316-2.851-1.374 0-2.273 1.126-2.273 2.851 0 1.717.899 2.835 2.273 2.835zm.022 3.947c-1.783 0-3.077-.863-3.26-2.171h1.323c.19.658.972 1.067 2.01 1.067 1.359 0 2.221-.709 2.221-1.827v-1.235h-.029c-.497.855-1.425 1.352-2.528 1.352-1.995 0-3.333-1.586-3.333-3.968 0-2.405 1.338-3.983 3.362-3.983 1.111 0 2.039.489 2.565 1.352h.022v-1.279h1.213v7.659c0 1.885-1.352 3.033-3.566 3.033zm6.533-13.367h3.303v.994h-2.076v10.326h2.164v.987h-3.391v-12.307zm7.307 0v12.307h-3.391v-.987h2.171V282.59h-2.076v-.994h3.296zm9.711 9.522c1.287 0 2.229-.833 2.229-1.965v-.636l-2.06.131c-1.184.073-1.798.505-1.798 1.265 0 .73.636 1.205 1.629 1.205zm-.27 1.104c-1.6 0-2.66-.921-2.66-2.317 0-1.352 1.038-2.148 2.952-2.265l2.207-.132v-.657c0-.98-.643-1.521-1.805-1.521-.913 0-1.593.468-1.746 1.214h-1.221c.037-1.33 1.33-2.346 2.982-2.346 1.864 0 3.062.994 3.062 2.543v5.408h-1.206v-1.367h-.029c-.446.877-1.432 1.44-2.536 1.44zm6.058-.073v-7.878h1.198v1.279h.03c.234-.826.986-1.352 1.907-1.352.154 0 .38.022.49.051v1.257c-.103-.044-.439-.088-.658-.088-1.023 0-1.695.746-1.695 1.856v4.875h-1.272zm8.17-1.133c1.381 0 2.316-1.147 2.316-2.835 0-1.696-.935-2.851-2.316-2.851-1.374 0-2.273 1.126-2.273 2.851 0 1.717.899 2.835 2.273 2.835zm.022 3.947c-1.783 0-3.077-.863-3.26-2.171h1.323c.19.658.972 1.067 2.01 1.067 1.359 0 2.221-.709 2.221-1.827v-1.235h-.029c-.497.855-1.425 1.352-2.528 1.352-1.995 0-3.333-1.586-3.333-3.968 0-2.405 1.338-3.983 3.362-3.983 1.111 0 2.039.489 2.565 1.352h.022v-1.279h1.213v7.659c0 1.885-1.352 3.033-3.566 3.033zm5.765-8.492c0-1.331 1.206-2.266 2.916-2.266 1.601 0 2.814.957 2.865 2.251h-1.22c-.081-.738-.724-1.199-1.689-1.199-.972 0-1.622.461-1.622 1.148 0 .533.424.891 1.33 1.118l1.199.3c1.593.401 2.163.957 2.163 2.104 0 1.345-1.294 2.295-3.113 2.295-1.696 0-2.924-.921-3.048-2.287h1.279c.131.803.782 1.235 1.856 1.235 1.075 0 1.747-.446 1.747-1.155 0-.555-.329-.848-1.228-1.082l-1.381-.358c-1.381-.358-2.054-1.052-2.054-2.104z"/><path fill="#C78FFF" d="M72.166 332.603h3.983c1.98 0 3.376 1.389 3.376 3.384 0 2.002-1.41 3.398-3.391 3.398h-2.653v3.764h-1.315v-10.546zm1.315 1.17v4.443h2.324c1.506 0 2.368-.826 2.368-2.229 0-1.396-.855-2.214-2.368-2.214h-2.324zm7.995 9.376v-7.878h1.198v1.279h.03c.233-.826.986-1.352 1.907-1.352.153 0 .38.022.49.051v1.257c-.103-.044-.44-.088-.658-.088-1.023 0-1.696.746-1.696 1.856v4.875h-1.271zm5.422 0v-7.878h1.271v7.878h-1.271zm.636-9.15a.81.81 0 0 1-.804-.804c0-.446.365-.804.803-.804.446 0 .804.358.804.804a.806.806 0 0 1-.803.804zm3.032 9.15v-7.878h1.198v1.279h.03c.496-.892 1.352-1.352 2.572-1.352 1.732 0 2.806 1.111 2.806 2.901v5.05h-1.271v-4.831c0-1.286-.673-1.988-1.915-1.988-1.294 0-2.149.892-2.149 2.244v4.575h-1.271zm9.317-9.654h1.272v1.776h1.534v1.052h-1.534v4.728c0 .724.307 1.053.979 1.053.153 0 .46-.022.548-.037v1.075a4.659 4.659 0 0 1-.818.065c-1.426 0-1.981-.592-1.981-2.104v-4.78h-1.096v-1.052h1.096v-1.776zm4.472 6.753h1.323c.124 1.14 1.206 1.892 2.711 1.892 1.425 0 2.463-.752 2.463-1.79 0-.892-.621-1.44-2.039-1.805l-1.352-.351c-1.944-.497-2.806-1.352-2.806-2.784 0-1.754 1.534-2.982 3.727-2.982 2.097 0 3.617 1.242 3.676 3.011h-1.316c-.117-1.133-1.03-1.827-2.404-1.827-1.367 0-2.317.709-2.317 1.739 0 .797.585 1.272 2.017 1.644l1.104.293c2.185.548 3.069 1.388 3.069 2.901 0 1.929-1.52 3.135-3.946 3.135-2.236 0-3.786-1.213-3.91-3.076zm10.245-6.753h1.272v1.776h1.535v1.052h-1.535v4.728c0 .724.307 1.053.979 1.053.154 0 .461-.022.548-.037v1.075a4.65 4.65 0 0 1-.818.065c-1.425 0-1.981-.592-1.981-2.104v-4.78h-1.096v-1.052h1.096v-1.776zm4.816 9.654v-7.878h1.198v1.279h.03c.233-.826.986-1.352 1.907-1.352.154 0 .38.022.49.051v1.257c-.103-.044-.439-.088-.658-.088-1.023 0-1.696.746-1.696 1.856v4.875h-1.271zm8.126-6.833c-1.235 0-2.127.899-2.214 2.229h4.333c-.029-1.338-.877-2.229-2.119-2.229zm2.09 4.582h1.257c-.219 1.352-1.586 2.324-3.267 2.324-2.214 0-3.61-1.542-3.61-3.983s1.403-4.041 3.552-4.041c2.105 0 3.42 1.483 3.42 3.866v.497h-5.656v.073c0 1.498.92 2.47 2.324 2.47.986 0 1.753-.468 1.98-1.206zm5.861 1.22c1.286 0 2.229-.833 2.229-1.965v-.636l-2.061.131c-1.184.073-1.798.505-1.798 1.265 0 .73.636 1.205 1.63 1.205zm-.271 1.104c-1.6 0-2.66-.921-2.66-2.317 0-1.352 1.038-2.148 2.952-2.265l2.208-.132v-.657c0-.98-.644-1.521-1.806-1.521-.913 0-1.593.468-1.746 1.214h-1.221c.037-1.33 1.33-2.346 2.982-2.346 1.864 0 3.062.994 3.062 2.543v5.408h-1.206v-1.367h-.029c-.446.877-1.432 1.44-2.536 1.44zm6.058-.073v-7.878h1.199v1.279h.029c.372-.841 1.213-1.352 2.236-1.352 1.067 0 1.864.54 2.207 1.491h.029c.446-.936 1.374-1.491 2.478-1.491 1.556 0 2.565 1.008 2.565 2.572v5.379h-1.272v-5.087c0-1.088-.606-1.732-1.659-1.732-1.052 0-1.805.782-1.805 1.864v4.955h-1.271v-5.24c0-.95-.651-1.579-1.637-1.579-1.053 0-1.827.826-1.827 1.93v4.889h-1.272z"/><path fill="#FAC4B8" d="M410.635 343.149v-7.878h1.199v1.279h.029c.234-.826.987-1.352 1.907-1.352.154 0 .38.022.49.051v1.257c-.102-.044-.439-.088-.658-.088-1.023 0-1.695.746-1.695 1.856v4.875h-1.272zm7.922-1.031c1.286 0 2.229-.833 2.229-1.965v-.636l-2.061.131c-1.184.073-1.798.505-1.798 1.265 0 .73.636 1.205 1.63 1.205zm-.271 1.104c-1.6 0-2.66-.921-2.66-2.317 0-1.352 1.038-2.148 2.953-2.265l2.207-.132v-.657c0-.98-.644-1.521-1.806-1.521-.913 0-1.593.468-1.746 1.214h-1.221c.037-1.33 1.33-2.346 2.982-2.346 1.864 0 3.062.994 3.062 2.543v5.408h-1.206v-1.367h-.029c-.446.877-1.432 1.44-2.536 1.44zm6.058-.073v-7.878h1.199v1.279h.029c.497-.892 1.352-1.352 2.572-1.352 1.732 0 2.807 1.111 2.807 2.901v5.05h-1.272v-4.831c0-1.286-.672-1.988-1.915-1.988-1.293 0-2.148.892-2.148 2.244v4.575h-1.272zm11.89.073c-1.981 0-3.377-1.608-3.377-4.012 0-2.405 1.389-4.012 3.348-4.012 1.125 0 2.031.489 2.514 1.352h.029v-4.407h1.271v11.006h-1.213v-1.33h-.022c-.511.906-1.41 1.403-2.55 1.403zm.226-6.892c-1.381 0-2.302 1.141-2.302 2.88 0 1.746.921 2.879 2.302 2.879 1.367 0 2.295-1.162 2.295-2.879 0-1.71-.928-2.88-2.295-2.88zm7.439 6.819h-1.315v-10.546h1.315v10.546zm2.485 0v-7.878h1.198v1.279h.029c.497-.892 1.352-1.352 2.573-1.352 1.732 0 2.806 1.111 2.806 2.901v5.05h-1.272v-4.831c0-1.286-.672-1.988-1.914-1.988-1.294 0-2.149.892-2.149 2.244v4.575h-1.271zm9.317-9.654h1.271v1.776h1.535v1.052h-1.535v4.728c0 .724.307 1.053.98 1.053.153 0 .46-.022.548-.037v1.075a4.672 4.672 0 0 1-.819.065c-1.425 0-1.98-.592-1.98-2.104v-4.78h-1.096v-1.052h1.096v-1.776zm4.684 3.976c0-1.331 1.206-2.266 2.916-2.266 1.6 0 2.813.957 2.864 2.251h-1.22c-.08-.738-.723-1.199-1.688-1.199-.972 0-1.623.461-1.623 1.148 0 .533.424.891 1.331 1.118l1.198.3c1.593.401 2.163.957 2.163 2.104 0 1.345-1.293 2.295-3.113 2.295-1.695 0-2.923-.921-3.047-2.287h1.278c.132.803.782 1.235 1.857 1.235 1.074 0 1.746-.446 1.746-1.155 0-.555-.329-.848-1.227-1.082l-1.382-.358c-1.381-.358-2.053-1.052-2.053-2.104zm8.959 5.751a.823.823 0 0 1-.833-.833c0-.475.365-.833.833-.833.475 0 .833.358.833.833a.819.819 0 0 1-.833.833zm3.12-9.727h1.272v1.776h1.534v1.052h-1.534v4.728c0 .724.306 1.053.979 1.053.153 0 .46-.022.548-.037v1.075a4.672 4.672 0 0 1-.819.065c-1.425 0-1.98-.592-1.98-2.104v-4.78h-1.096v-1.052h1.096v-1.776zm7.578 6.636h-.029l-1.922 3.018h-1.418l2.697-3.939-2.653-3.939h1.417l1.922 2.974h.03l1.9-2.974h1.418l-2.668 3.888 2.631 3.99h-1.418l-1.907-3.018zm5.502-6.636h1.272v1.776h1.535v1.052h-1.535v4.728c0 .724.307 1.053.979 1.053.154 0 .461-.022.548-.037v1.075a4.659 4.659 0 0 1-.818.065c-1.425 0-1.981-.592-1.981-2.104v-4.78h-1.096v-1.052h1.096v-1.776z"/><g filter="url(#d)"><path fill="#A1AEE5" fill-opacity=".02" d="M810 590H-12v-35h822z"/></g><path stroke="url(#e)" stroke-opacity=".15" stroke-width="1.333" d="M809.333 589.333H1630V623H809.333z" transform="rotate(-180 809.333 589.333)"/></g><rect width="791" height="590" x="1" y="1" stroke="#A1AEE5" stroke-opacity=".12" stroke-width="2" rx="19"/></g><mask id="j" fill="#fff"><path d="M0 0h542v57H0V0z"/></mask><path fill="url(#f)" fill-opacity=".12" d="M0 0h542v57H0V0z"/><path fill="#030515" fill-opacity=".25" d="M793 20c0-11.046-8.954-20-20-20H317v49a8 8 0 0 0 8 8h468V20z"/><path stroke="url(#g)" stroke-opacity=".54" stroke-width="1.333" d="M773 .667H317.667V49A7.333 7.333 0 0 0 325 56.333h467.333V20C792.333 9.322 783.678.667 773 .667z"/><path fill="#030515" fill-opacity=".25" d="M158 0H20C8.954 0 0 8.954 0 20v38h150a8 8 0 0 0 8-8V0z"/><path stroke="url(#h)" stroke-opacity=".54" stroke-width="1.333" d="M157.333.667H20C9.322.667.667 9.322.667 20v37.333H150A7.333 7.333 0 0 0 157.333 50V.667z"/><circle cx="36.333" cy="29" r="7.333" stroke="#A1AEE5" stroke-opacity=".45" stroke-width="1.333"/><circle cx="63" cy="29" r="7.333" stroke="#A1AEE5" stroke-opacity=".45" stroke-width="1.333"/><circle cx="89.666" cy="29" r="7.333" stroke="#A1AEE5" stroke-opacity=".45" stroke-width="1.333"/><path fill="#A1AEE5" d="M191.733 27.92c-.173-.773-.493-1.38-.96-1.82-.467-.44-1.12-.66-1.96-.66-.6 0-1.127.127-1.58.38a3.58 3.58 0 0 0-1.14 1 4.84 4.84 0 0 0-.68 1.42 5.853 5.853 0 0 0-.22 1.6c0 .547.073 1.087.22 1.62.16.52.387.987.68 1.4a3.58 3.58 0 0 0 1.14 1c.453.253.98.38 1.58.38.387 0 .753-.073 1.1-.22a3.06 3.06 0 0 0 .92-.6 3.443 3.443 0 0 0 .98-2.12h1.26c-.173 1.253-.633 2.233-1.38 2.94-.747.693-1.707 1.04-2.88 1.04-.787 0-1.487-.14-2.1-.42a4.578 4.578 0 0 1-1.52-1.18 5.123 5.123 0 0 1-.94-1.72 6.925 6.925 0 0 1-.32-2.12c0-.747.107-1.447.32-2.1a5.092 5.092 0 0 1 .94-1.74c.413-.493.92-.887 1.52-1.18.613-.293 1.313-.44 2.1-.44 1.107 0 2.04.293 2.8.88.773.587 1.233 1.473 1.38 2.66h-1.26zm2.331-3.24h1.4l3.24 9.06h.04l3.2-9.06h1.3L199.384 35h-1.34l-3.98-10.32zm9.658 0h1.4l3.24 9.06h.04l3.2-9.06h1.3L209.042 35h-1.34l-3.98-10.32zm10.818 5.4v-1.16h5v1.16h-5zm13.002-9.36h1.26v2.02h-1.26v-2.02zm-4.52 5.02h-1.76v-1.06h1.76v-.94c0-.44.034-.847.1-1.22.067-.373.194-.693.38-.96.187-.267.44-.473.76-.62.334-.147.754-.22 1.26-.22.187 0 .36.007.52.02.16.013.34.033.54.06v1.08a7.732 7.732 0 0 0-.48-.06 2.444 2.444 0 0 0-.44-.04c-.346 0-.613.053-.8.16a1.035 1.035 0 0 0-.42.44 1.71 1.71 0 0 0-.14.62c-.013.24-.02.5-.02.78v.9h2.04v1.06h-2.04V35h-1.26v-9.26zm4.52-1.06h1.26V35h-1.26V24.68zm4.067 0h1.26v1.78h.04c.24-.627.667-1.127 1.28-1.5a3.713 3.713 0 0 1 2.02-.58c.72 0 1.32.093 1.8.28.493.187.887.453 1.18.8.293.333.5.747.62 1.24s.18 1.047.18 1.66V35h-1.26v-6.44c0-.44-.04-.847-.12-1.22-.08-.387-.22-.72-.42-1-.2-.28-.473-.5-.82-.66-.333-.16-.753-.24-1.26-.24s-.96.093-1.36.28c-.387.173-.72.42-1 .74-.267.307-.48.68-.64 1.12a4.643 4.643 0 0 0-.24 1.4V35h-1.26V24.68zm11.042 3.16c.04-.6.167-1.12.38-1.56.213-.44.5-.8.86-1.08.373-.28.807-.487 1.3-.62a6.28 6.28 0 0 1 1.64-.2c.453 0 .907.047 1.36.14.453.08.86.24 1.22.48s.653.58.88 1.02c.227.427.34.987.34 1.68v5.48c0 .507.247.76.74.76.147 0 .28-.027.4-.08v1.06c-.147.027-.28.047-.4.06-.107.013-.247.02-.42.02-.32 0-.58-.04-.78-.12a1.115 1.115 0 0 1-.44-.38 1.488 1.488 0 0 1-.22-.56 6.283 6.283 0 0 1-.04-.74h-.04c-.227.333-.46.633-.7.9a3.291 3.291 0 0 1-.78.64c-.28.173-.607.307-.98.4a5.24 5.24 0 0 1-1.3.14c-.48 0-.933-.06-1.36-.18a3.108 3.108 0 0 1-1.1-.52 2.862 2.862 0 0 1-.74-.94c-.173-.387-.26-.84-.26-1.36 0-.72.16-1.28.48-1.68.32-.413.74-.727 1.26-.94a7.105 7.105 0 0 1 1.78-.44c.667-.093 1.34-.18 2.02-.26.267-.027.5-.06.7-.1.2-.04.367-.107.5-.2a.978.978 0 0 0 .3-.42c.08-.173.12-.4.12-.68 0-.427-.073-.773-.22-1.04-.133-.28-.327-.5-.58-.66a2.14 2.14 0 0 0-.86-.32 5.1 5.1 0 0 0-1.04-.1c-.8 0-1.453.193-1.96.58-.507.373-.773.98-.8 1.82h-1.26zm6.72 1.52h-.04c-.08.147-.233.253-.46.32a4.72 4.72 0 0 1-.6.14c-.533.093-1.087.18-1.66.26a8.488 8.488 0 0 0-1.54.32c-.467.147-.853.36-1.16.64-.293.267-.44.653-.44 1.16 0 .32.06.607.18.86.133.24.307.453.52.64.213.173.46.307.74.4.28.093.567.14.86.14.48 0 .94-.073 1.38-.22.44-.147.82-.36 1.14-.64.333-.28.593-.62.78-1.02a3 3 0 0 0 .3-1.36v-1.64zm4.191-8.64h1.26V35h-1.26V20.72zM258.374 35v-2.12h1.68V35h-1.68zm7.226-10.32h2.1v1.06h-2.1v6.96c0 .413.053.74.16.98.12.227.407.353.86.38.36 0 .72-.02 1.08-.06v1.06c-.187 0-.373.007-.56.02-.187.013-.373.02-.56.02-.84 0-1.427-.16-1.76-.48-.333-.333-.493-.94-.48-1.82v-7.06h-1.8v-1.06h1.8v-3.1h1.26v3.1zm10.498 3.02a2.294 2.294 0 0 0-.24-1 1.984 1.984 0 0 0-.6-.72 2.23 2.23 0 0 0-.84-.4c-.32-.093-.66-.14-1.02-.14-.28 0-.567.033-.86.1a2.3 2.3 0 0 0-.78.3c-.24.133-.433.313-.58.54-.147.227-.22.507-.22.84 0 .28.067.52.2.72.147.187.327.347.54.48.213.133.447.247.7.34.253.08.487.147.7.2l1.68.38c.36.053.713.153 1.06.3a3.1 3.1 0 0 1 .94.54c.28.227.507.507.68.84.173.333.26.727.26 1.18 0 .56-.127 1.04-.38 1.44-.253.387-.58.707-.98.96-.387.24-.827.413-1.32.52a6.89 6.89 0 0 1-1.46.16c-1.213 0-2.2-.287-2.96-.86-.747-.573-1.173-1.493-1.28-2.76h1.26c.053.853.36 1.5.92 1.94.573.427 1.28.64 2.12.64.307 0 .62-.033.94-.1.333-.067.64-.18.92-.34.28-.16.507-.36.68-.6.187-.253.28-.56.28-.92 0-.307-.067-.56-.2-.76a1.44 1.44 0 0 0-.5-.52 2.93 2.93 0 0 0-.74-.36 8.344 8.344 0 0 0-.82-.24l-1.62-.36a10.527 10.527 0 0 1-1.14-.36 4.353 4.353 0 0 1-.92-.52 2.379 2.379 0 0 1-.6-.76c-.147-.307-.22-.68-.22-1.12 0-.52.113-.967.34-1.34.24-.373.547-.673.92-.9a4.245 4.245 0 0 1 1.24-.5c.467-.107.927-.16 1.38-.16.52 0 1 .067 1.44.2.453.133.847.34 1.18.62.347.28.62.627.82 1.04.2.413.313.9.34 1.46h-1.26zm3.849-6.98h1.26v8.96l5.72-5h1.68l-4.4 3.82 4.7 6.5h-1.58l-4.08-5.62-2.04 1.7V35h-1.26V20.72z"/><path fill="#A1AEE5" fill-opacity=".5" d="M366.635 27.7a2.294 2.294 0 0 0-.24-1 1.965 1.965 0 0 0-.6-.72 2.23 2.23 0 0 0-.84-.4c-.32-.093-.66-.14-1.02-.14-.28 0-.566.033-.86.1a2.3 2.3 0 0 0-.78.3c-.24.133-.433.313-.58.54-.146.227-.22.507-.22.84 0 .28.067.52.2.72.147.187.327.347.54.48.214.133.447.247.7.34.254.08.487.147.7.2l1.68.38c.36.053.714.153 1.06.3.36.133.674.313.94.54.28.227.507.507.68.84.174.333.26.727.26 1.18 0 .56-.126 1.04-.38 1.44-.253.387-.58.707-.98.96-.386.24-.826.413-1.32.52a6.89 6.89 0 0 1-1.46.16c-1.213 0-2.2-.287-2.96-.86-.746-.573-1.173-1.493-1.28-2.76h1.26c.054.853.36 1.5.92 1.94.574.427 1.28.64 2.12.64.307 0 .62-.033.94-.1.334-.067.64-.18.92-.34.28-.16.507-.36.68-.6.187-.253.28-.56.28-.92 0-.307-.066-.56-.2-.76a1.43 1.43 0 0 0-.5-.52 2.93 2.93 0 0 0-.74-.36 8.265 8.265 0 0 0-.82-.24l-1.62-.36a10.527 10.527 0 0 1-1.14-.36 4.378 4.378 0 0 1-.92-.52 2.379 2.379 0 0 1-.6-.76c-.146-.307-.22-.68-.22-1.12 0-.52.114-.967.34-1.34.24-.373.547-.673.92-.9a4.256 4.256 0 0 1 1.24-.5c.467-.107.927-.16 1.38-.16.52 0 1 .067 1.44.2.454.133.847.34 1.18.62.347.28.62.627.82 1.04.2.413.314.9.34 1.46h-1.26zm12.929 7.3h-1.16v-1.96h-.04a2.87 2.87 0 0 1-.6.92c-.253.28-.546.52-.88.72a4.816 4.816 0 0 1-1.08.44c-.373.107-.746.16-1.12.16-.786 0-1.473-.14-2.06-.42a4.29 4.29 0 0 1-1.44-1.18 5.204 5.204 0 0 1-.86-1.74 7.78 7.78 0 0 1-.28-2.1c0-.733.094-1.427.28-2.08a4.965 4.965 0 0 1 .86-1.74 4.191 4.191 0 0 1 1.44-1.2c.587-.293 1.274-.44 2.06-.44.387 0 .76.047 1.12.14.374.093.72.24 1.04.44.32.187.6.42.84.7.254.28.447.607.58.98h.04v-5.92h1.26V35zm-8.26-5.16c0 .533.06 1.067.18 1.6.134.52.334.987.6 1.4.28.413.634.753 1.06 1.02.427.253.94.38 1.54.38.667 0 1.227-.127 1.68-.38.467-.267.84-.607 1.12-1.02a3.9 3.9 0 0 0 .62-1.4c.134-.533.2-1.067.2-1.6 0-.533-.066-1.06-.2-1.58a3.895 3.895 0 0 0-.62-1.42 3.126 3.126 0 0 0-1.12-1c-.453-.267-1.013-.4-1.68-.4-.6 0-1.113.133-1.54.4a3.31 3.31 0 0 0-1.06 1 4.734 4.734 0 0 0-.6 1.42c-.12.52-.18 1.047-.18 1.58zm11.065-9.12h1.26v8.96l5.72-5h1.68l-4.4 3.82 4.7 6.5h-1.58l-4.08-5.62-2.04 1.7V35h-1.26V20.72zm12.4 3.96h2.1v1.06h-2.1v6.96c0 .413.053.74.16.98.12.227.406.353.86.38.36 0 .72-.02 1.08-.06v1.06c-.187 0-.374.007-.56.02-.187.013-.374.02-.56.02-.84 0-1.427-.16-1.76-.48-.334-.333-.494-.94-.48-1.82v-7.06h-1.8v-1.06h1.8v-3.1h1.26v3.1zM399.827 35v-2.12h1.68V35h-1.68zm5.246-14.28h1.26v2.02h-1.26v-2.02zm0 3.96h1.26v11.26c0 .387-.033.753-.1 1.1a2.149 2.149 0 0 1-.34.9c-.16.267-.387.473-.68.62-.28.16-.64.24-1.08.24-.147 0-.287-.007-.42-.02a4.87 4.87 0 0 0-.44-.02v-1.04c.107.013.22.02.34.02.12.013.227.013.32 0 .493 0 .807-.147.94-.44.133-.28.2-.633.2-1.06V24.68zm3.952 3.16c.04-.6.166-1.12.38-1.56.213-.44.5-.8.86-1.08a3.78 3.78 0 0 1 1.3-.62 6.28 6.28 0 0 1 1.64-.2c.453 0 .906.047 1.36.14.453.08.86.24 1.22.48s.653.58.88 1.02c.226.427.34.987.34 1.68v5.48c0 .507.246.76.74.76.146 0 .28-.027.4-.08v1.06c-.147.027-.28.047-.4.06-.107.013-.247.02-.42.02-.32 0-.58-.04-.78-.12a1.108 1.108 0 0 1-.44-.38 1.488 1.488 0 0 1-.22-.56 6.283 6.283 0 0 1-.04-.74h-.04c-.227.333-.46.633-.7.9a3.291 3.291 0 0 1-.78.64c-.28.173-.607.307-.98.4a5.26 5.26 0 0 1-1.3.14c-.48 0-.934-.06-1.36-.18a3.1 3.1 0 0 1-1.1-.52 2.85 2.85 0 0 1-.74-.94c-.174-.387-.26-.84-.26-1.36 0-.72.16-1.28.48-1.68.32-.413.74-.727 1.26-.94a7.094 7.094 0 0 1 1.78-.44c.666-.093 1.34-.18 2.02-.26.266-.027.5-.06.7-.1.2-.04.366-.107.5-.2a.978.978 0 0 0 .3-.42c.08-.173.12-.4.12-.68 0-.427-.074-.773-.22-1.04-.134-.28-.327-.5-.58-.66a2.14 2.14 0 0 0-.86-.32 5.1 5.1 0 0 0-1.04-.1c-.8 0-1.454.193-1.96.58-.507.373-.774.98-.8 1.82h-1.26zm6.72 1.52h-.04c-.08.147-.234.253-.46.32a4.72 4.72 0 0 1-.6.14 49.07 49.07 0 0 1-1.66.26 8.47 8.47 0 0 0-1.54.32c-.467.147-.854.36-1.16.64-.294.267-.44.653-.44 1.16 0 .32.06.607.18.86.133.24.306.453.52.64.213.173.46.307.74.4.28.093.566.14.86.14.48 0 .94-.073 1.38-.22.44-.147.82-.36 1.14-.64.333-.28.593-.62.78-1.02a3 3 0 0 0 .3-1.36v-1.64zm3.011-4.68h1.4l3.24 9.06h.04l3.2-9.06h1.3L424.076 35h-1.34l-3.98-10.32zm10.697 3.16c.04-.6.167-1.12.38-1.56.214-.44.5-.8.86-1.08.374-.28.807-.487 1.3-.62.494-.133 1.04-.2 1.64-.2.454 0 .907.047 1.36.14.454.08.86.24 1.22.48s.654.58.88 1.02c.227.427.34.987.34 1.68v5.48c0 .507.247.76.74.76.147 0 .28-.027.4-.08v1.06c-.146.027-.28.047-.4.06a3.52 3.52 0 0 1-.42.02c-.32 0-.58-.04-.78-.12a1.122 1.122 0 0 1-.44-.38 1.505 1.505 0 0 1-.22-.56 6.505 6.505 0 0 1-.04-.74h-.04c-.226.333-.46.633-.7.9a3.252 3.252 0 0 1-.78.64c-.28.173-.606.307-.98.4a5.24 5.24 0 0 1-1.3.14c-.48 0-.933-.06-1.36-.18a3.108 3.108 0 0 1-1.1-.52 2.875 2.875 0 0 1-.74-.94c-.173-.387-.26-.84-.26-1.36 0-.72.16-1.28.48-1.68.32-.413.74-.727 1.26-.94a7.116 7.116 0 0 1 1.78-.44c.667-.093 1.34-.18 2.02-.26.267-.027.5-.06.7-.1.2-.04.367-.107.5-.2a.961.961 0 0 0 .3-.42c.08-.173.12-.4.12-.68 0-.427-.073-.773-.22-1.04-.133-.28-.326-.5-.58-.66a2.135 2.135 0 0 0-.86-.32c-.32-.067-.666-.1-1.04-.1-.8 0-1.453.193-1.96.58-.506.373-.773.98-.8 1.82h-1.26zm6.72 1.52h-.04c-.08.147-.233.253-.46.32a4.643 4.643 0 0 1-.6.14c-.533.093-1.086.18-1.66.26a8.488 8.488 0 0 0-1.54.32c-.466.147-.853.36-1.16.64-.293.267-.44.653-.44 1.16 0 .32.06.607.18.86.134.24.307.453.52.64.214.173.46.307.74.4.28.093.567.14.86.14.48 0 .94-.073 1.38-.22.44-.147.82-.36 1.14-.64.334-.28.594-.62.78-1.02a3 3 0 0 0 .3-1.36v-1.64zm61.4-1.44c-.173-.773-.493-1.38-.96-1.82-.467-.44-1.12-.66-1.96-.66-.6 0-1.127.127-1.58.38a3.58 3.58 0 0 0-1.14 1 4.84 4.84 0 0 0-.68 1.42 5.853 5.853 0 0 0-.22 1.6c0 .547.073 1.087.22 1.62.16.52.387.987.68 1.4a3.58 3.58 0 0 0 1.14 1c.453.253.98.38 1.58.38.387 0 .753-.073 1.1-.22a3.06 3.06 0 0 0 .92-.6 3.443 3.443 0 0 0 .98-2.12h1.26c-.173 1.253-.633 2.233-1.38 2.94-.747.693-1.707 1.04-2.88 1.04-.787 0-1.487-.14-2.1-.42a4.578 4.578 0 0 1-1.52-1.18 5.123 5.123 0 0 1-.94-1.72 6.925 6.925 0 0 1-.32-2.12c0-.747.107-1.447.32-2.1a5.092 5.092 0 0 1 .94-1.74c.413-.493.92-.887 1.52-1.18.613-.293 1.313-.44 2.1-.44 1.107 0 2.04.293 2.8.88.773.587 1.233 1.473 1.38 2.66h-1.26zm2.331-3.24h1.4l3.24 9.06h.04l3.2-9.06h1.3L505.224 35h-1.34l-3.98-10.32zm9.658 0h1.4l3.24 9.06h.04l3.2-9.06h1.3L514.882 35h-1.34l-3.98-10.32zm10.818 5.4v-1.16h5v1.16h-5zm13.002-9.36h1.26v2.02h-1.26v-2.02zm-4.52 5.02h-1.76v-1.06h1.76v-.94c0-.44.033-.847.1-1.22a2.38 2.38 0 0 1 .38-.96c.187-.267.44-.473.76-.62.333-.147.753-.22 1.26-.22.187 0 .36.007.52.02.16.013.34.033.54.06v1.08a7.732 7.732 0 0 0-.48-.06 2.452 2.452 0 0 0-.44-.04c-.347 0-.613.053-.8.16a1.024 1.024 0 0 0-.42.44 1.69 1.69 0 0 0-.14.62c-.013.24-.02.5-.02.78v.9h2.04v1.06h-2.04V35h-1.26v-9.26zm4.52-1.06h1.26V35h-1.26V24.68zm4.067 0h1.26v1.78h.04c.24-.627.666-1.127 1.28-1.5a3.71 3.71 0 0 1 2.02-.58c.72 0 1.32.093 1.8.28.493.187.886.453 1.18.8.293.333.5.747.62 1.24s.18 1.047.18 1.66V35h-1.26v-6.44c0-.44-.04-.847-.12-1.22-.08-.387-.22-.72-.42-1-.2-.28-.474-.5-.82-.66-.334-.16-.754-.24-1.26-.24-.507 0-.96.093-1.36.28-.387.173-.72.42-1 .74-.267.307-.48.68-.64 1.12a4.643 4.643 0 0 0-.24 1.4V35h-1.26V24.68zm11.042 3.16c.04-.6.167-1.12.38-1.56.213-.44.5-.8.86-1.08.373-.28.807-.487 1.3-.62a6.28 6.28 0 0 1 1.64-.2c.453 0 .907.047 1.36.14.453.08.86.24 1.22.48s.653.58.88 1.02c.227.427.34.987.34 1.68v5.48c0 .507.247.76.74.76.147 0 .28-.027.4-.08v1.06c-.147.027-.28.047-.4.06-.107.013-.247.02-.42.02-.32 0-.58-.04-.78-.12a1.115 1.115 0 0 1-.44-.38 1.488 1.488 0 0 1-.22-.56 6.283 6.283 0 0 1-.04-.74h-.04c-.227.333-.46.633-.7.9a3.291 3.291 0 0 1-.78.64c-.28.173-.607.307-.98.4a5.24 5.24 0 0 1-1.3.14c-.48 0-.933-.06-1.36-.18a3.108 3.108 0 0 1-1.1-.52 2.862 2.862 0 0 1-.74-.94c-.173-.387-.26-.84-.26-1.36 0-.72.16-1.28.48-1.68.32-.413.74-.727 1.26-.94a7.105 7.105 0 0 1 1.78-.44c.667-.093 1.34-.18 2.02-.26.267-.027.5-.06.7-.1.2-.04.367-.107.5-.2a.978.978 0 0 0 .3-.42c.08-.173.12-.4.12-.68 0-.427-.073-.773-.22-1.04-.133-.28-.327-.5-.58-.66a2.14 2.14 0 0 0-.86-.32 5.1 5.1 0 0 0-1.04-.1c-.8 0-1.453.193-1.96.58-.507.373-.773.98-.8 1.82h-1.26zm6.72 1.52h-.04c-.08.147-.233.253-.46.32a4.72 4.72 0 0 1-.6.14c-.533.093-1.087.18-1.66.26a8.488 8.488 0 0 0-1.54.32c-.467.147-.853.36-1.16.64-.293.267-.44.653-.44 1.16 0 .32.06.607.18.86.133.24.307.453.52.64.213.173.46.307.74.4.28.093.567.14.86.14.48 0 .94-.073 1.38-.22.44-.147.82-.36 1.14-.64.333-.28.593-.62.78-1.02a3 3 0 0 0 .3-1.36v-1.64zm4.191-8.64h1.26V35h-1.26V20.72zm4.071 9.36v-1.16h5v1.16h-5zm9.803-5.4h2.1v1.06h-2.1v6.96c0 .413.053.74.16.98.12.227.406.353.86.38.36 0 .72-.02 1.08-.06v1.06c-.187 0-.374.007-.56.02-.187.013-.374.02-.56.02-.84 0-1.427-.16-1.76-.48-.334-.333-.494-.94-.48-1.82v-7.06h-1.8v-1.06h1.8v-3.1h1.26v3.1zm4.198 3.16c.04-.6.166-1.12.38-1.56.213-.44.5-.8.86-1.08a3.78 3.78 0 0 1 1.3-.62 6.28 6.28 0 0 1 1.64-.2c.453 0 .906.047 1.36.14.453.08.86.24 1.22.48s.653.58.88 1.02c.226.427.34.987.34 1.68v5.48c0 .507.246.76.74.76.146 0 .28-.027.4-.08v1.06c-.147.027-.28.047-.4.06-.107.013-.247.02-.42.02-.32 0-.58-.04-.78-.12a1.108 1.108 0 0 1-.44-.38 1.488 1.488 0 0 1-.22-.56 6.283 6.283 0 0 1-.04-.74h-.04c-.227.333-.46.633-.7.9a3.291 3.291 0 0 1-.78.64c-.28.173-.607.307-.98.4a5.26 5.26 0 0 1-1.3.14c-.48 0-.934-.06-1.36-.18a3.1 3.1 0 0 1-1.1-.52 2.85 2.85 0 0 1-.74-.94c-.174-.387-.26-.84-.26-1.36 0-.72.16-1.28.48-1.68.32-.413.74-.727 1.26-.94a7.094 7.094 0 0 1 1.78-.44c.666-.093 1.34-.18 2.02-.26.266-.027.5-.06.7-.1.2-.04.366-.107.5-.2a.978.978 0 0 0 .3-.42c.08-.173.12-.4.12-.68 0-.427-.074-.773-.22-1.04-.134-.28-.327-.5-.58-.66a2.14 2.14 0 0 0-.86-.32 5.1 5.1 0 0 0-1.04-.1c-.8 0-1.454.193-1.96.58-.507.373-.774.98-.8 1.82h-1.26zm6.72 1.52h-.04c-.08.147-.234.253-.46.32a4.72 4.72 0 0 1-.6.14 49.07 49.07 0 0 1-1.66.26 8.47 8.47 0 0 0-1.54.32c-.467.147-.854.36-1.16.64-.294.267-.44.653-.44 1.16 0 .32.06.607.18.86.133.24.306.453.52.64.213.173.46.307.74.4.28.093.566.14.86.14.48 0 .94-.073 1.38-.22.44-.147.82-.36 1.14-.64.333-.28.593-.62.78-1.02a3 3 0 0 0 .3-1.36v-1.64zm10.351-1.66a2.294 2.294 0 0 0-.24-1 1.984 1.984 0 0 0-.6-.72 2.23 2.23 0 0 0-.84-.4c-.32-.093-.66-.14-1.02-.14-.28 0-.567.033-.86.1a2.3 2.3 0 0 0-.78.3c-.24.133-.433.313-.58.54-.147.227-.22.507-.22.84 0 .28.067.52.2.72.147.187.327.347.54.48.213.133.447.247.7.34.253.08.487.147.7.2l1.68.38c.36.053.713.153 1.06.3a3.1 3.1 0 0 1 .94.54c.28.227.507.507.68.84.173.333.26.727.26 1.18 0 .56-.127 1.04-.38 1.44-.253.387-.58.707-.98.96-.387.24-.827.413-1.32.52a6.89 6.89 0 0 1-1.46.16c-1.213 0-2.2-.287-2.96-.86-.747-.573-1.173-1.493-1.28-2.76h1.26c.053.853.36 1.5.92 1.94.573.427 1.28.64 2.12.64.307 0 .62-.033.94-.1.333-.067.64-.18.92-.34.28-.16.507-.36.68-.6.187-.253.28-.56.28-.92 0-.307-.067-.56-.2-.76a1.44 1.44 0 0 0-.5-.52 2.93 2.93 0 0 0-.74-.36 8.344 8.344 0 0 0-.82-.24l-1.62-.36a10.527 10.527 0 0 1-1.14-.36 4.353 4.353 0 0 1-.92-.52 2.379 2.379 0 0 1-.6-.76c-.147-.307-.22-.68-.22-1.12 0-.52.113-.967.34-1.34.24-.373.547-.673.92-.9a4.245 4.245 0 0 1 1.24-.5c.467-.107.927-.16 1.38-.16.52 0 1 .067 1.44.2.453.133.847.34 1.18.62.347.28.62.627.82 1.04.2.413.313.9.34 1.46h-1.26zm3.849-6.98h1.26v8.96l5.72-5h1.68l-4.4 3.82 4.7 6.5h-1.58l-4.08-5.62-2.04 1.7V35h-1.26V20.72zM609.534 35v-2.12h1.68V35h-1.68zm7.226-10.32h2.1v1.06h-2.1v6.96c0 .413.053.74.16.98.12.227.407.353.86.38.36 0 .72-.02 1.08-.06v1.06c-.187 0-.373.007-.56.02-.187.013-.373.02-.56.02-.84 0-1.427-.16-1.76-.48-.333-.333-.493-.94-.48-1.82v-7.06h-1.8v-1.06h1.8v-3.1h1.26v3.1zm10.498 3.02a2.294 2.294 0 0 0-.24-1 1.984 1.984 0 0 0-.6-.72 2.23 2.23 0 0 0-.84-.4c-.32-.093-.66-.14-1.02-.14-.28 0-.567.033-.86.1a2.3 2.3 0 0 0-.78.3c-.24.133-.433.313-.58.54-.147.227-.22.507-.22.84 0 .28.067.52.2.72.147.187.327.347.54.48.213.133.447.247.7.34.253.08.487.147.7.2l1.68.38c.36.053.713.153 1.06.3a3.1 3.1 0 0 1 .94.54c.28.227.507.507.68.84.173.333.26.727.26 1.18 0 .56-.127 1.04-.38 1.44-.253.387-.58.707-.98.96-.387.24-.827.413-1.32.52a6.89 6.89 0 0 1-1.46.16c-1.213 0-2.2-.287-2.96-.86-.747-.573-1.173-1.493-1.28-2.76h1.26c.053.853.36 1.5.92 1.94.573.427 1.28.64 2.12.64.307 0 .62-.033.94-.1.333-.067.64-.18.92-.34.28-.16.507-.36.68-.6.187-.253.28-.56.28-.92 0-.307-.067-.56-.2-.76a1.44 1.44 0 0 0-.5-.52 2.93 2.93 0 0 0-.74-.36 8.344 8.344 0 0 0-.82-.24l-1.62-.36a10.527 10.527 0 0 1-1.14-.36 4.353 4.353 0 0 1-.92-.52 2.379 2.379 0 0 1-.6-.76c-.147-.307-.22-.68-.22-1.12 0-.52.113-.967.34-1.34.24-.373.547-.673.92-.9a4.245 4.245 0 0 1 1.24-.5c.467-.107.927-.16 1.38-.16.52 0 1 .067 1.44.2.453.133.847.34 1.18.62.347.28.62.627.82 1.04.2.413.313.9.34 1.46h-1.26zm3.849-6.98h1.26v8.96l5.72-5h1.68l-4.4 3.82 4.7 6.5h-1.58l-4.08-5.62-2.04 1.7V35h-1.26V20.72z"/><path fill="url(#i)" fill-opacity=".32" d="M0 2h542v-4H0v4z" mask="url(#j)"/><path fill="#8A8AB5" fill-opacity=".6" d="M477.057 580v-8.727h1.057v7.789h4.056V580h-5.113zm6.75 0v-8.727h5.233v.937h-4.176v2.949h3.784v.938h-3.784V580h-1.057zm27.25-2v-8.727h1.057v7.789h4.056V578h-5.113zm6.613 0v-6.545h1.006V578h-1.006zm.512-7.636a.713.713 0 0 1-.507-.201.643.643 0 0 1-.209-.481c0-.188.07-.348.209-.482a.717.717 0 0 1 .507-.2c.196 0 .363.067.503.2a.639.639 0 0 1 .213.482.636.636 0 0 1-.213.481.7.7 0 0 1-.503.201zm3.342 3.698V578h-1.006v-6.545h.972v1.022h.085c.153-.332.386-.599.699-.801.312-.204.716-.307 1.21-.307.443 0 .831.091 1.163.273.333.179.591.452.776.818.185.364.277.824.277 1.381V578h-1.006v-4.091c0-.514-.133-.915-.4-1.202-.267-.289-.634-.434-1.1-.434-.321 0-.608.069-.861.209-.25.139-.447.342-.592.609-.145.267-.217.591-.217.971zm8.758 4.074c-.631 0-1.175-.139-1.632-.417a2.803 2.803 0 0 1-1.053-1.176c-.244-.506-.366-1.094-.366-1.765 0-.67.122-1.261.366-1.772a2.883 2.883 0 0 1 1.032-1.202c.443-.29.96-.435 1.551-.435.341 0 .677.057 1.01.171.332.113.635.298.907.554.273.253.49.588.652 1.005.162.418.243.932.243 1.543v.426h-5.045v-.869h4.022c0-.369-.073-.699-.221-.989a1.67 1.67 0 0 0-.622-.686 1.749 1.749 0 0 0-.946-.251c-.401 0-.747.099-1.04.298a1.96 1.96 0 0 0-.669.767 2.254 2.254 0 0 0-.234 1.014v.58c0 .494.085.913.255 1.257.173.341.414.601.72.78.307.176.664.264 1.07.264.264 0 .503-.037.716-.111.216-.077.402-.19.558-.341.156-.153.277-.344.362-.571l.972.273a2.149 2.149 0 0 1-.516.869 2.502 2.502 0 0 1-.895.58 3.325 3.325 0 0 1-1.197.204zm10.496-.017a3.266 3.266 0 0 1-1.074-.204 2.569 2.569 0 0 1-.98-.661c-.296-.312-.533-.734-.712-1.265-.179-.534-.268-1.205-.268-2.012 0-.772.072-1.457.217-2.054.145-.599.355-1.103.631-1.512a2.84 2.84 0 0 1 .997-.938 2.73 2.73 0 0 1 1.325-.32c.489 0 .923.098 1.304.294.384.194.696.464.938.81.241.347.397.746.468 1.198h-1.039a1.929 1.929 0 0 0-.563-.976c-.278-.259-.648-.388-1.108-.388-.676 0-1.209.294-1.598.882-.386.588-.581 1.413-.584 2.476h.068a2.561 2.561 0 0 1 1.3-1.019c.267-.093.55-.14.848-.14.5 0 .958.125 1.372.375.415.247.747.589.997 1.027.25.434.375.933.375 1.496a3.07 3.07 0 0 1-.362 1.482 2.758 2.758 0 0 1-1.018 1.066c-.435.261-.946.389-1.534.383zm0-.937c.358 0 .679-.09.963-.269.287-.179.513-.419.677-.72.168-.301.252-.636.252-1.005 0-.361-.081-.689-.243-.985a1.857 1.857 0 0 0-.661-.712 1.745 1.745 0 0 0-.954-.264c-.27 0-.522.054-.754.162a1.94 1.94 0 0 0-.614.435c-.173.185-.31.396-.409.635a2.018 2.018 0 0 0 .767 2.446c.287.184.612.277.976.277zm5.34-.298a.741.741 0 0 1-.541-.226.738.738 0 0 1-.226-.542c0-.21.075-.39.226-.541a.741.741 0 0 1 .541-.226.74.74 0 0 1 .541.226.737.737 0 0 1 .226.541.72.72 0 0 1-.106.384.801.801 0 0 1-.277.281.736.736 0 0 1-.384.103zm0-4.415a.741.741 0 0 1-.541-.226.737.737 0 0 1-.226-.541c0-.211.075-.391.226-.541a.737.737 0 0 1 .541-.226c.21 0 .391.075.541.226.151.15.226.33.226.541a.793.793 0 0 1-.383.664.727.727 0 0 1-.384.103zm5.623-3.196V578h-1.057v-7.619h-.051l-2.131 1.414v-1.073l2.182-1.449h1.057zm5.357 8.846c-.642 0-1.189-.174-1.641-.524-.452-.352-.797-.862-1.035-1.53-.239-.67-.358-1.48-.358-2.429 0-.943.119-1.748.358-2.416.241-.67.588-1.182 1.039-1.534.455-.355 1-.533 1.637-.533.636 0 1.18.178 1.632.533.454.352.801.864 1.04 1.534.241.668.362 1.473.362 2.416 0 .949-.12 1.759-.358 2.429-.239.668-.584 1.178-1.036 1.53-.451.35-.998.524-1.64.524zm0-.937c.636 0 1.13-.307 1.483-.921.352-.613.528-1.488.528-2.625 0-.755-.081-1.399-.243-1.93-.159-.531-.389-.936-.69-1.215a1.527 1.527 0 0 0-1.078-.417c-.631 0-1.124.311-1.479.933-.355.619-.533 1.496-.533 2.629 0 .756.08 1.398.239 1.926.159.529.388.931.686 1.206.301.276.663.414 1.087.414zm30.686-7.909h1.057v5.778c0 .597-.141 1.129-.422 1.598a2.954 2.954 0 0 1-1.18 1.104c-.509.267-1.105.4-1.79.4s-1.281-.133-1.79-.4a2.995 2.995 0 0 1-1.185-1.104 3.072 3.072 0 0 1-.417-1.598v-5.778h1.057v5.693c0 .426.093.805.281 1.138.187.329.454.589.801.78.349.187.767.281 1.253.281.486 0 .903-.094 1.253-.281.349-.191.616-.451.801-.78.187-.333.281-.712.281-1.138v-5.693zm2.69.937v-.937h6.546v.937h-2.745V578h-1.057v-7.79h-2.744zm8.177 7.79v-8.727h5.233v.937h-4.177v2.949h3.784v.938h-3.784V578h-1.056zm9.685.119c-.586 0-1.103-.103-1.552-.311a2.536 2.536 0 0 1-1.044-.865 2.17 2.17 0 0 1-.37-1.261 2.314 2.314 0 0 1 .822-1.811 1.86 1.86 0 0 1 .865-.405v-.051a1.69 1.69 0 0 1-.997-.703 2.13 2.13 0 0 1-.366-1.24c-.003-.444.109-.84.336-1.189.227-.35.54-.625.938-.827.4-.202.856-.303 1.368-.303.505 0 .957.101 1.355.303.397.202.71.477.937.827.23.349.347.745.35 1.189-.003.463-.13.876-.38 1.24-.247.36-.575.595-.984.703v.051c.315.057.599.192.852.405.253.21.455.473.605.788.151.313.228.653.23 1.023-.002.471-.13.892-.383 1.261-.25.367-.598.655-1.044.865-.443.208-.956.311-1.538.311zm0-.937c.394 0 .735-.064 1.022-.192.287-.128.509-.308.665-.541.156-.233.236-.506.239-.818a1.569 1.569 0 0 0-.256-.874 1.726 1.726 0 0 0-.686-.596 2.153 2.153 0 0 0-.984-.218c-.373 0-.705.073-.998.218a1.733 1.733 0 0 0-.686.596 1.552 1.552 0 0 0-.243.874 1.44 1.44 0 0 0 .226.818c.157.233.38.413.669.541.29.128.634.192 1.032.192zm0-4.142c.312 0 .589-.063.831-.188.244-.125.436-.299.575-.524.139-.224.21-.487.213-.788a1.462 1.462 0 0 0-.209-.772 1.35 1.35 0 0 0-.567-.511 1.843 1.843 0 0 0-.843-.183c-.327 0-.613.061-.857.183-.244.119-.433.29-.567.511a1.429 1.429 0 0 0-.196.772c-.003.301.064.564.201.788.139.225.331.399.575.524.244.125.525.188.844.188zm25.567 4.96v-.767l2.881-3.153c.338-.37.617-.691.835-.964.219-.275.381-.534.486-.775.108-.244.162-.5.162-.767a1.413 1.413 0 0 0-.818-1.317 1.936 1.936 0 0 0-.852-.183c-.336 0-.628.069-.878.209a1.442 1.442 0 0 0-.576.575c-.133.247-.2.537-.2.869h-1.005c0-.511.117-.96.353-1.346.236-.387.557-.688.963-.904a2.903 2.903 0 0 1 1.377-.324c.511 0 .964.108 1.359.324.395.216.705.507.929.874.224.366.337.774.337 1.223 0 .321-.059.635-.175.942-.114.304-.313.643-.597 1.018-.281.372-.672.827-1.172 1.364l-1.96 2.096v.068h4.057V578h-5.506zm15.567-6.545a1.337 1.337 0 0 0-.622-1.006c-.364-.239-.81-.358-1.338-.358-.386 0-.724.062-1.014.187a1.62 1.62 0 0 0-.674.516 1.236 1.236 0 0 0-.238.746c0 .233.055.433.166.601.114.164.259.302.435.413.176.108.36.197.554.268.193.069.37.124.532.167l.887.238c.227.06.48.142.758.247.281.106.55.249.806.431.258.179.471.409.639.69.167.281.251.627.251 1.036 0 .471-.123.897-.371 1.278-.244.381-.602.683-1.073.908-.469.224-1.039.336-1.709.336-.625 0-1.166-.1-1.624-.302a2.596 2.596 0 0 1-1.074-.844 2.421 2.421 0 0 1-.439-1.257h1.091c.029.33.14.602.333.818a1.8 1.8 0 0 0 .741.477c.301.103.625.154.972.154.403 0 .765-.065 1.086-.196.321-.134.576-.318.763-.554a1.31 1.31 0 0 0 .281-.835c0-.29-.08-.526-.242-.708a1.781 1.781 0 0 0-.64-.443 6.598 6.598 0 0 0-.856-.298l-1.074-.307c-.682-.196-1.222-.476-1.619-.84-.398-.363-.597-.839-.597-1.427 0-.489.132-.915.396-1.279.267-.366.625-.65 1.074-.852a3.636 3.636 0 0 1 1.513-.307c.563 0 1.063.101 1.5.303a2.6 2.6 0 0 1 1.04.818c.258.347.395.74.409 1.181h-1.023zm2.743 9v-9h.972v1.039h.119a9.15 9.15 0 0 1 .307-.434c.134-.179.324-.338.571-.478.25-.142.588-.213 1.014-.213.552 0 1.037.138 1.458.414.42.275.748.666.984 1.172.236.505.354 1.102.354 1.789 0 .694-.118 1.294-.354 1.803-.236.506-.562.898-.98 1.176-.418.276-.899.413-1.445.413-.42 0-.757-.069-1.01-.208a1.874 1.874 0 0 1-.583-.482 6.21 6.21 0 0 1-.316-.452h-.085v3.461h-1.006zm.989-5.728c0 .495.073.931.217 1.309.145.375.357.669.635.882.279.21.62.315 1.023.315.421 0 .771-.111 1.053-.332.284-.225.497-.526.639-.904.145-.381.217-.804.217-1.27 0-.46-.071-.875-.213-1.244a1.923 1.923 0 0 0-.635-.882c-.281-.219-.635-.328-1.061-.328-.409 0-.753.103-1.031.311-.279.204-.489.491-.631.861-.142.366-.213.794-.213 1.282zm8.25 3.426c-.415 0-.791-.078-1.129-.234a1.942 1.942 0 0 1-.806-.686c-.198-.301-.298-.665-.298-1.091 0-.375.074-.679.222-.912.147-.236.345-.42.592-.554a3.12 3.12 0 0 1 .818-.298 10.1 10.1 0 0 1 .908-.162c.398-.051.72-.09.967-.115.25-.029.432-.075.546-.141.116-.065.174-.179.174-.341v-.034c0-.42-.115-.747-.345-.98-.227-.233-.572-.349-1.035-.349-.48 0-.857.105-1.13.315-.272.21-.464.435-.575.673l-.954-.341c.17-.397.397-.707.681-.929.287-.224.6-.38.938-.468a3.89 3.89 0 0 1 1.006-.137 4 4 0 0 1 .724.077c.276.048.541.149.797.303.258.153.473.385.643.694.171.31.256.725.256 1.245V578h-1.006v-.886h-.051a1.77 1.77 0 0 1-.341.456c-.159.162-.37.299-.635.413-.264.114-.586.17-.967.17zm.153-.903c.398 0 .733-.078 1.006-.234a1.597 1.597 0 0 0 .835-1.385v-.921c-.042.051-.136.098-.281.141a4.65 4.65 0 0 1-.494.106 21.302 21.302 0 0 1-.963.128c-.262.034-.506.09-.733.166a1.265 1.265 0 0 0-.546.337c-.136.148-.204.349-.204.605 0 .35.129.614.388.793.261.176.592.264.992.264zm7.342.886c-.614 0-1.142-.145-1.585-.434a2.823 2.823 0 0 1-1.023-1.198c-.239-.508-.358-1.089-.358-1.743 0-.664.122-1.251.366-1.76.247-.511.591-.91 1.032-1.197.443-.29.96-.435 1.551-.435.46 0 .875.086 1.244.256s.672.409.908.716c.235.307.382.665.439 1.074h-1.006a1.56 1.56 0 0 0-.511-.793c-.262-.233-.614-.349-1.057-.349-.392 0-.736.102-1.032.307a2 2 0 0 0-.686.856c-.162.367-.242.797-.242 1.291 0 .506.079.946.238 1.321.162.375.389.666.682.874.295.207.642.311 1.04.311.261 0 .498-.045.711-.136a1.48 1.48 0 0 0 .542-.392 1.52 1.52 0 0 0 .315-.614h1.006a2.34 2.34 0 0 1-.422 1.044 2.364 2.364 0 0 1-.882.733c-.364.179-.787.268-1.27.268zm6.788 0c-.631 0-1.175-.139-1.632-.417a2.81 2.81 0 0 1-1.053-1.176c-.244-.506-.366-1.094-.366-1.765 0-.67.122-1.261.366-1.772a2.89 2.89 0 0 1 1.032-1.202c.443-.29.96-.435 1.551-.435.341 0 .677.057 1.01.171.332.113.635.298.907.554.273.253.49.588.652 1.005.162.418.243.932.243 1.543v.426H673.4v-.869h4.023c0-.369-.074-.699-.222-.989a1.67 1.67 0 0 0-.622-.686 1.749 1.749 0 0 0-.946-.251c-.401 0-.747.099-1.04.298a1.96 1.96 0 0 0-.669.767 2.254 2.254 0 0 0-.234 1.014v.58c0 .494.085.913.255 1.257.174.341.414.601.72.78.307.176.664.264 1.07.264.264 0 .503-.037.716-.111.216-.077.402-.19.558-.341.156-.153.277-.344.362-.571l.972.273a2.149 2.149 0 0 1-.516.869 2.507 2.507 0 0 1-.894.58 3.334 3.334 0 0 1-1.198.204zm8.877-5.216-.904.256a1.713 1.713 0 0 0-.251-.439 1.22 1.22 0 0 0-.444-.358c-.187-.093-.427-.14-.72-.14-.4 0-.734.092-1.001.277-.264.181-.396.413-.396.694 0 .25.091.448.272.593.182.144.466.265.853.362l.971.238c.585.142 1.021.36 1.308.652.287.29.431.664.431 1.121 0 .375-.108.71-.324 1.006a2.153 2.153 0 0 1-.895.699c-.383.17-.829.255-1.338.255-.668 0-1.22-.145-1.658-.434-.437-.29-.714-.713-.831-1.27l.955-.239c.091.352.263.617.516.793.255.176.589.264 1.001.264.469 0 .841-.099 1.116-.298.279-.202.418-.443.418-.725a.76.76 0 0 0-.239-.571c-.159-.156-.403-.272-.733-.349l-1.09-.256c-.6-.142-1.04-.362-1.321-.66-.279-.302-.418-.678-.418-1.13 0-.369.104-.696.311-.98.21-.284.496-.507.857-.669a3.001 3.001 0 0 1 1.235-.243c.648 0 1.157.142 1.526.426.372.285.636.66.793 1.125zm36.547-3.17c.158 0 .302.089.373.23l.301.603h2.5c.23 0 .417.187.417.417v4.583c0 .23-.187.417-.417.417h-2.659a.415.415 0 0 1-.372-.23l-.302-.603h-2.917v2.5h-.833v-7.917h3.909zm-.257.833h-2.819v3.75h3.432l.417.834h1.985v-3.75h-2.599l-.416-.834zM731.92 578v-6.545h.972v1.022h.085c.137-.349.357-.62.661-.814.304-.196.669-.294 1.095-.294.432 0 .791.098 1.078.294.29.194.516.465.678.814h.068c.167-.338.419-.606.754-.805.335-.202.737-.303 1.206-.303.585 0 1.064.184 1.436.55.372.364.558.93.558 1.7V578h-1.005v-4.381c0-.483-.132-.828-.397-1.035a1.462 1.462 0 0 0-.933-.311c-.46 0-.817.139-1.069.417-.253.276-.38.625-.38 1.049V578h-1.022v-4.483c0-.372-.121-.672-.363-.899-.241-.23-.552-.345-.933-.345-.261 0-.506.069-.733.209a1.576 1.576 0 0 0-.545.579 1.704 1.704 0 0 0-.205.848V578h-1.006zm12.356.153c-.414 0-.791-.078-1.129-.234a1.933 1.933 0 0 1-.805-.686c-.199-.301-.299-.665-.299-1.091 0-.375.074-.679.222-.912.148-.236.345-.42.592-.554a3.12 3.12 0 0 1 .818-.298c.302-.068.604-.122.908-.162.398-.051.72-.09.967-.115.25-.029.432-.075.546-.141.116-.065.175-.179.175-.341v-.034c0-.42-.115-.747-.346-.98-.227-.233-.572-.349-1.035-.349-.48 0-.857.105-1.129.315-.273.21-.465.435-.576.673l-.954-.341c.17-.397.398-.707.682-.929.287-.224.599-.38.937-.468a3.89 3.89 0 0 1 1.006-.137c.21 0 .452.026.724.077.276.048.541.149.797.303.259.153.473.385.644.694.17.31.255.725.255 1.245V578h-1.005v-.886h-.052a1.764 1.764 0 0 1-.34.456c-.16.162-.371.299-.635.413-.265.114-.587.17-.968.17zm.154-.903c.397 0 .733-.078 1.005-.234.276-.157.483-.358.623-.605.142-.248.213-.508.213-.78v-.921c-.043.051-.137.098-.282.141-.142.04-.306.075-.494.106a21.302 21.302 0 0 1-.963.128c-.261.034-.506.09-.733.166a1.261 1.261 0 0 0-.545.337c-.137.148-.205.349-.205.605 0 .35.129.614.388.793.261.176.592.264.993.264zm4.682.75v-6.545h1.006V578h-1.006zm.511-7.636a.713.713 0 0 1-.507-.201.643.643 0 0 1-.209-.481c0-.188.07-.348.209-.482a.717.717 0 0 1 .507-.2c.196 0 .364.067.503.2a.639.639 0 0 1 .213.482.636.636 0 0 1-.213.481.7.7 0 0 1-.503.201zm3.342 3.698V578h-1.005v-6.545h.971v1.022h.085a1.88 1.88 0 0 1 .699-.801c.313-.204.716-.307 1.21-.307.444 0 .831.091 1.164.273.332.179.591.452.775.818.185.364.277.824.277 1.381V578h-1.005v-4.091c0-.514-.134-.915-.401-1.202-.267-.289-.633-.434-1.099-.434-.321 0-.608.069-.861.209-.25.139-.448.342-.592.609-.145.267-.218.591-.218.971z"/><defs><radialGradient id="c" cx="0" cy="0" r="1" gradientTransform="rotate(89.934 198.25 198.477) scale(436 584.034)" gradientUnits="userSpaceOnUse"><stop stop-color="#A1AEE5"/><stop offset=".618" stop-color="#A1AEE5" stop-opacity=".333"/><stop offset="1" stop-color="#A1AEE5" stop-opacity="0"/></radialGradient><radialGradient id="e" cx="0" cy="0" r="1" gradientTransform="matrix(-822 0 0 -49.9072 1632 642.014)" gradientUnits="userSpaceOnUse"><stop stop-color="#A1AEE5"/><stop offset="1" stop-color="#fff" stop-opacity="0"/></radialGradient><radialGradient id="f" cx="0" cy="0" r="1" gradientTransform="matrix(-1.49997 51.49996 -81.64638 -2.378 243 0)" gradientUnits="userSpaceOnUse"><stop stop-color="#B1BBFF"/><stop offset=".836" stop-color="#fff" stop-opacity="0"/></radialGradient><radialGradient id="g" cx="0" cy="0" r="1" gradientTransform="matrix(476 0 0 81.2774 317 84.708)" gradientUnits="userSpaceOnUse"><stop stop-color="#A1AEE5"/><stop offset="1" stop-color="#A1AEE5" stop-opacity="0"/></radialGradient><radialGradient id="h" cx="0" cy="0" r="1" gradientTransform="matrix(-158 0 0 -86.1944 158 86.194)" gradientUnits="userSpaceOnUse"><stop stop-color="#A1AEE5"/><stop offset="1" stop-color="#A1AEE5" stop-opacity="0"/></radialGradient><radialGradient id="i" cx="0" cy="0" r="1" gradientTransform="matrix(-2 40.99995 -35.08738 -1.71158 243.5 0)" gradientUnits="userSpaceOnUse"><stop stop-color="#C4C8FF"/><stop offset="1" stop-color="#1C1F35"/></radialGradient><filter id="a" width="1373.06" height="1172.06" x="-290.03" y="-290.03" color-interpolation-filters="sRGB" filterUnits="userSpaceOnUse"><feFlood flood-opacity="0" result="BackgroundImageFix"/><feGaussianBlur in="BackgroundImageFix" stdDeviation="145.015"/><feComposite in2="SourceAlpha" operator="in" result="effect1_backgroundBlur_177_567"/><feBlend in="SourceGraphic" in2="effect1_backgroundBlur_177_567" result="shape"/></filter><filter id="d" width="822" height="35" x="-12" y="555" color-interpolation-filters="sRGB" filterUnits="userSpaceOnUse"><feFlood flood-opacity="0" result="BackgroundImageFix"/><feBlend in="SourceGraphic" in2="BackgroundImageFix" result="shape"/><feColorMatrix in="SourceAlpha" result="hardAlpha" values="0 0 0 0 0 0 0 0 0 0 0 0 0 0 0 0 0 0 127 0"/><feOffset/><feGaussianBlur stdDeviation="15"/><feComposite in2="hardAlpha" k2="-1" k3="1" operator="arithmetic"/><feColorMatrix values="0 0 0 0 0.631373 0 0 0 0 0.682353 0 0 0 0 0.898039 0 0 0 0.11 0"/><feBlend in2="shape" result="effect1_innerShadow_177_567"/></filter><clipPath id="b"><rect width="793" height="592" fill="#fff" rx="20"/></clipPath></defs></svg>