<svg width="45" height="33" viewBox="0 0 45 33" fill="none" xmlns="http://www.w3.org/2000/svg">
<path d="M24.9219 29.2188V10.3125C24.9219 7.57745 26.0084 4.95443 27.9423 3.02046C29.8763 1.08649 32.4993 0 35.2344 0C35.6902 0 36.1274 0.181081 36.4497 0.503409C36.772 0.825737 36.9531 1.26291 36.9531 1.71875C36.9531 2.17459 36.772 2.61176 36.4497 2.93409C36.1274 3.25642 35.6902 3.4375 35.2344 3.4375C33.4128 3.44317 31.6674 4.16931 30.3793 5.4574C29.0912 6.74549 28.365 8.49088 28.3594 10.3125V12.0312H41.25C42.1617 12.0312 43.036 12.3934 43.6807 13.0381C44.3253 13.6827 44.6875 14.5571 44.6875 15.4688V29.2188C44.6875 30.1304 44.3253 31.0048 43.6807 31.6494C43.036 32.2941 42.1617 32.6562 41.25 32.6562H28.3594C27.4477 32.6562 26.5734 32.2941 25.9287 31.6494C25.284 31.0048 24.9219 30.1304 24.9219 29.2188ZM3.4375 32.6562H16.3281C17.2398 32.6562 18.1141 32.2941 18.7588 31.6494C19.4035 31.0048 19.7656 30.1304 19.7656 29.2188V15.4688C19.7656 14.5571 19.4035 13.6827 18.7588 13.0381C18.1141 12.3934 17.2398 12.0312 16.3281 12.0312H3.4375V10.3125C3.44317 8.49088 4.16931 6.74549 5.4574 5.4574C6.74549 4.16931 8.49088 3.44317 10.3125 3.4375C10.7683 3.4375 11.2055 3.25642 11.5278 2.93409C11.8502 2.61176 12.0312 2.17459 12.0312 1.71875C12.0312 1.26291 11.8502 0.825737 11.5278 0.503409C11.2055 0.181081 10.7683 0 10.3125 0C7.57745 0 4.95443 1.08649 3.02046 3.02046C1.08649 4.95443 0 7.57745 0 10.3125V29.2188C0 30.1304 0.362165 31.0048 1.00682 31.6494C1.65148 32.2941 2.52582 32.6562 3.4375 32.6562V32.6562Z" fill="#f27e02"/>
</svg>
