<svg xmlns="http://www.w3.org/2000/svg" version="1.1" xmlns:xlink="http://www.w3.org/1999/xlink" xmlns:svgjs="http://svgjs.dev/svgjs" viewBox="0 0 7.518937617816811 2.095339427364075"><g transform="matrix(1,0,0,1,1.9337441386039176,0.4926697136820375)"><g><path d=" M 0.28200000000000003 0.40049999999999986 L 0.28200000000000003 0.8849999999999999 Q 0.28200000000000003 0.9449999999999998 0.3075 0.9697499999999999 Q 0.333 0.9944999999999998 0.396 0.9944999999999998 L 0.4965 0.9944999999999998 L 0.4965 1.1099999999999999 L 0.3735 1.1099999999999999 Q 0.2595 1.1099999999999999 0.2025 1.0574999999999999 Q 0.1455 1.005 0.1455 0.8849999999999999 L 0.1455 0.40049999999999986 L 0.039 0.40049999999999986 L 0.039 0.2879999999999998 L 0.1455 0.2879999999999998 L 0.1455 0.08099999999999996 L 0.28200000000000003 0.08099999999999996 L 0.28200000000000003 0.2879999999999998 L 0.4965 0.2879999999999998 L 0.4965 0.40049999999999986 L 0.28200000000000003 0.40049999999999986 M 1.2525205078125001 0.31274999999999986 Q 1.3275205078125 0.3524999999999998 1.3702705078125001 0.43199999999999983 Q 1.4130205078125 0.5114999999999998 1.4130205078125 0.6255 L 1.4130205078125 1.1099999999999999 L 1.2780205078125 1.1099999999999999 L 1.2780205078125 0.6449999999999998 Q 1.2780205078125 0.5219999999999999 1.2165205078125 0.4567499999999999 Q 1.1550205078125 0.39149999999999985 1.0485205078125 0.39149999999999985 Q 0.9405205078125001 0.39149999999999985 0.8767705078125001 0.45899999999999985 Q 0.8130205078125 0.5264999999999999 0.8130205078125 0.6554999999999999 L 0.8130205078125 1.1099999999999999 L 0.6765205078125001 1.1099999999999999 L 0.6765205078125001 -2.220446049250313e-16 L 0.8130205078125 -2.220446049250313e-16 L 0.8130205078125 0.4049999999999999 Q 0.8535205078125 0.34199999999999986 0.9247705078125 0.3074999999999999 Q 0.9960205078125 0.2729999999999999 1.0845205078125 0.2729999999999999 Q 1.1775205078125 0.2729999999999999 1.2525205078125001 0.31274999999999986 M 2.29504248046875 0.3637499999999999 Q 2.38804248046875 0.4544999999999999 2.38804248046875 0.6255 L 2.38804248046875 1.1099999999999999 L 2.25304248046875 1.1099999999999999 L 2.25304248046875 0.6449999999999998 Q 2.25304248046875 0.5219999999999999 2.19154248046875 0.4567499999999999 Q 2.13004248046875 0.39149999999999985 2.02354248046875 0.39149999999999985 Q 1.91554248046875 0.39149999999999985 1.85179248046875 0.45899999999999985 Q 1.78804248046875 0.5264999999999999 1.78804248046875 0.6554999999999999 L 1.78804248046875 1.1099999999999999 L 1.65154248046875 1.1099999999999999 L 1.65154248046875 0.2879999999999998 L 1.78804248046875 0.2879999999999998 L 1.78804248046875 0.4049999999999999 Q 1.82854248046875 0.34199999999999986 1.89829248046875 0.3074999999999999 Q 1.96804248046875 0.2729999999999999 2.0520424804687503 0.2729999999999999 Q 2.20204248046875 0.2729999999999999 2.29504248046875 0.3637499999999999 M 3.085564453125 1.1099999999999999 L 2.7630644531249997 0.7469999999999999 L 2.7630644531249997 1.1099999999999999 L 2.626564453125 1.1099999999999999 L 2.626564453125 -2.220446049250313e-16 L 2.7630644531249997 -2.220446049250313e-16 L 2.7630644531249997 0.6524999999999999 L 3.079564453125 0.2879999999999998 L 3.270064453125 0.2879999999999998 L 2.883064453125 0.6974999999999998 L 3.271564453125 1.1099999999999999 L 3.085564453125 1.1099999999999999 M 3.65333642578125 0.31199999999999983 Q 3.72008642578125 0.2729999999999999 3.81608642578125 0.2729999999999999 L 3.81608642578125 0.4139999999999998 L 3.78008642578125 0.4139999999999998 Q 3.5505864257812503 0.4139999999999998 3.5505864257812503 0.6629999999999998 L 3.5505864257812503 1.1099999999999999 L 3.41408642578125 1.1099999999999999 L 3.41408642578125 0.2879999999999998 L 3.5505864257812503 0.2879999999999998 L 3.5505864257812503 0.4214999999999999 Q 3.58658642578125 0.35099999999999987 3.65333642578125 0.31199999999999983 M 4.606565185546875 0.8774999999999998 L 4.150565185546875 0.8774999999999998 L 4.066565185546875 1.1099999999999999 L 3.9225651855468753 1.1099999999999999 L 4.300565185546875 0.07049999999999979 L 4.458065185546875 0.07049999999999979 L 4.834565185546875 1.1099999999999999 L 4.690565185546875 1.1099999999999999 L 4.606565185546875 0.8774999999999998 M 4.567565185546875 0.7664999999999998 L 4.378565185546876 0.23849999999999982 L 4.189565185546876 0.7664999999999998 L 4.567565185546875 0.7664999999999998 M 5.15108203125 0.06449999999999978 L 5.15108203125 1.1099999999999999 L 5.01458203125 1.1099999999999999 L 5.01458203125 0.06449999999999978 L 5.15108203125 0.06449999999999978" fill="#0e0904" fill-rule="nonzero"></path></g><g></g><g clip-path="url(#SvgjsClipPath1001)"><g clip-path="url(#SvgjsClipPath100080164d47-fcd7-4fb2-bdf4-b9c86afcb6b9)"><path d=" M -0.9839633008826916 1.2855157852503942 L -0.9839633008826916 0.5550020276503503 L -0.4486636084068907 0.24593539535748515 L -0.4486636084068907 0.9764532082582293 L -0.3999999999999999 0.9483540297039506 L -0.3999999999999999 0.16164597029604938 L -1.0326269092895826 0.5269028490960713 L -1.0326269092895826 1.2012263601889586 L -1.5679266017653835 0.8921637831967937 L -1.5679266017653835 0.21784027210390677 L -0.9352996924758006 -0.14742066199681575 L -0.9839633008826916 -0.17551578525039413 L -1.6165902101722742 0.18974109354962782 L -1.6165902101722742 0.9202589064503723 L -0.9839633008826916 1.2855157852503942 Z" fill="#ff6b00" transform="matrix(1,0,0,1,0,0)" fill-rule="nonzero"></path></g><g clip-path="url(#SvgjsClipPath100080164d47-fcd7-4fb2-bdf4-b9c86afcb6b9)"><path d=" M -0.7406452588482367 1.145032058381101 L -0.6919816504413456 1.1169369351275227 L -0.6919816504413456 0.6673865759653644 L -0.7406452588482367 0.6954857545196433 L -0.7406452588482367 1.145032058381101 Z" fill="#ff6b00" transform="matrix(1,0,0,1,0,0)" fill-rule="nonzero"></path></g><g clip-path="url(#SvgjsClipPath100080164d47-fcd7-4fb2-bdf4-b9c86afcb6b9)"><path d=" M -0.8379724756620186 1.2012263601889586 L -0.7893088672551276 1.17313123693538 L -0.7893088672551276 0.6673865759653644 L -0.6433180420344548 0.5830971509039287 L -0.6433180420344548 1.0888377565732439 L -0.5946544336275634 1.0607426333196652 L -0.5946544336275634 0.4988077258424929 L -0.8379724756620186 0.639291452711786 L -0.8379724756620186 1.2012263601889586 Z" fill="#ff6b00" transform="matrix(1,0,0,1,0,0)" fill-rule="nonzero"></path></g><g clip-path="url(#SvgjsClipPath100080164d47-fcd7-4fb2-bdf4-b9c86afcb6b9)"><path d=" M -1.3246085597309285 0.7516760010268001 L -1.2759449513240373 0.7797751795810791 L -1.2759449513240373 0.3864191222267782 L -0.6433180420344548 0.021162243426756322 L -0.6919816504413456 -0.0069369351275226365 L -1.3246085597309285 0.3583239989731998 L -1.3246085597309285 0.7516760010268001 Z" fill="#ff6b00" transform="matrix(1,0,0,1,0,0)" fill-rule="nonzero"></path></g><g clip-path="url(#SvgjsClipPath100080164d47-fcd7-4fb2-bdf4-b9c86afcb6b9)"><path d=" M -0.9352996924758006 1.2574206619968156 L -0.8866360840689096 1.2293214834425368 L -0.8866360840689096 0.6111922741575071 L -0.5459908252206727 0.41451424548035665 L -0.5459908252206727 1.032647510066087 L -0.4973272168137819 1.004548331511808 L -0.4973272168137819 0.3302248204189209 L -0.9352996924758006 0.5830971509039287 L -0.9352996924758006 1.2574206619968156 Z" fill="#ff6b00" transform="matrix(1,0,0,1,0,0)" fill-rule="nonzero"></path></g><g clip-path="url(#SvgjsClipPath100080164d47-fcd7-4fb2-bdf4-b9c86afcb6b9)"><path d=" M -1.4219357765447105 0.8078703028346574 L -1.1786177345102555 0.9483540297039506 L -1.1786177345102555 0.44261342403463555 L -0.5459908252206727 0.07735654523461372 L -0.5946544336275634 0.0492573666803347 L -1.2272813429171465 0.41451424548035665 L -1.2272813429171465 0.8640646046425147 L -1.3732721681378195 0.7797751795810791 L -1.3732721681378195 0.3302248204189209 L -0.7406452588482367 -0.035032058381101044 L -0.7893088672551276 -0.06312718163467942 L -1.4219357765447105 0.3021296971653425 L -1.4219357765447105 0.8078703028346574 Z" fill="#ff6b00" transform="matrix(1,0,0,1,0,0)" fill-rule="nonzero"></path></g><g clip-path="url(#SvgjsClipPath100080164d47-fcd7-4fb2-bdf4-b9c86afcb6b9)"><path d=" M -1.5192629933584925 0.8640646046425147 L -1.0812905176964733 1.1169369351275227 L -1.0812905176964733 0.4988077258424929 L -0.4486636084068907 0.13354679174177042 L -0.4973272168137819 0.10545166848819204 L -1.1299541261033645 0.470708547288214 L -1.1299541261033645 1.032647510066087 L -1.4705993849516015 0.8359694813889365 L -1.4705993849516015 0.27403051861106353 L -0.8379724756620186 -0.09122636018895838 L -0.8866360840689096 -0.11932148344253678 L -1.5192629933584925 0.24593539535748515 L -1.5192629933584925 0.8640646046425147 Z" fill="#ff6b00" transform="matrix(1,0,0,1,0,0)" fill-rule="nonzero"></path></g></g></g><defs><clipPath id="SvgjsClipPath1001"><path d=" M -1.6165902101722742 -0.17551578525039413 h 1.2165902101722743 v 1.4610315705007881 h -1.2165902101722743 Z"></path></clipPath><clipPath id="SvgjsClipPath100080164d47-fcd7-4fb2-bdf4-b9c86afcb6b9"><path d=" M -1.6165902101722742 -0.17551578525039413 L -0.3999999999999999 -0.17551578525039413 L -0.3999999999999999 1.285515785250394 L -1.6165902101722744 1.285515785250394 Z"></path></clipPath></defs></svg>